# Tiled2Unity generated file. Do not modify by hand.
# Wavefront file for 'village_2_mesh_0008.obj'

# Vertices (Count = 48)
v -31 -3 0
v -32 -3 0
v -32 -2 0
v -31 -2 0
v -31 -4 0
v -32 -4 0
v -32 -3 0
v -31 -3 0
v -31 -5 0
v -32 -5 0
v -32 -4 0
v -31 -4 0
v -31 -12 0
v -32 -12 0
v -32 -11 0
v -31 -11 0
v -31 -13 0
v -32 -13 0
v -32 -12 0
v -31 -12 0
v -31 -14 0
v -32 -14 0
v -32 -13 0
v -31 -13 0
v -31 -22 0
v -32 -22 0
v -32 -21 0
v -31 -21 0
v -30 -22 0
v -31 -22 0
v -31 -21 0
v -30 -21 0
v -31 -23 0
v -32 -23 0
v -32 -22 0
v -31 -22 0
v -30 -23 0
v -31 -23 0
v -31 -22 0
v -30 -22 0
v -31 -24 0
v -32 -24 0
v -32 -23 0
v -31 -23 0
v -30 -24 0
v -31 -24 0
v -31 -23 0
v -30 -23 0

# Texture cooridinates (Count = 12)
vt 0.5789474 0.7111111
vt 0.6315789 0.7111111
vt 0.6315789 0.7333333
vt 0.5789474 0.7333333
vt 0.5789474 0.6888889
vt 0.6315789 0.6888889
vt 0.5789474 0.6666666
vt 0.6315789 0.6666666
vt 0.6842105 0.7111111
vt 0.6842105 0.7333333
vt 0.6842105 0.6888889
vt 0.6842105 0.6666666

# Normal
vn 0 0 -1

# Mesh description
g village_2_mesh_0008

# Faces
f 1/1/1 2/2/1 3/3/1 4/4/1
f 5/5/1 6/6/1 7/2/1 8/1/1
f 9/7/1 10/8/1 11/6/1 12/5/1
f 13/1/1 14/2/1 15/3/1 16/4/1
f 17/5/1 18/6/1 19/2/1 20/1/1
f 21/7/1 22/8/1 23/6/1 24/5/1
f 25/2/1 26/9/1 27/10/1 28/3/1
f 29/1/1 30/2/1 31/3/1 32/4/1
f 33/6/1 34/11/1 35/9/1 36/2/1
f 37/5/1 38/6/1 39/2/1 40/1/1
f 41/8/1 42/12/1 43/11/1 44/6/1
f 45/7/1 46/8/1 47/6/1 48/5/1

