# Tiled2Unity generated file. Do not modify by hand.
# Wavefront file for 'village_2_mesh_0003.obj'

# Vertices (Count = 24)
v -31 -5 0
v -32 -5 0
v -32 -4 0
v -31 -4 0
v -31 -6 0
v -32 -6 0
v -32 -5 0
v -31 -5 0
v -31 -7 0
v -32 -7 0
v -32 -6 0
v -31 -6 0
v -31 -17 0
v -32 -17 0
v -32 -16 0
v -31 -16 0
v -31 -18 0
v -32 -18 0
v -32 -17 0
v -31 -17 0
v -31 -19 0
v -32 -19 0
v -32 -18 0
v -31 -18 0

# Texture cooridinates (Count = 8)
vt 0.5789474 0.7111111
vt 0.6315789 0.7111111
vt 0.6315789 0.7333333
vt 0.5789474 0.7333333
vt 0.5789474 0.6888889
vt 0.6315789 0.6888889
vt 0.5789474 0.6666666
vt 0.6315789 0.6666666

# Normal
vn 0 0 -1

# Mesh description
g village_2_mesh_0003

# Faces
f 1/1/1 2/2/1 3/3/1 4/4/1
f 5/5/1 6/6/1 7/2/1 8/1/1
f 9/7/1 10/8/1 11/6/1 12/5/1
f 13/1/1 14/2/1 15/3/1 16/4/1
f 17/5/1 18/6/1 19/2/1 20/1/1
f 21/7/1 22/8/1 23/6/1 24/5/1

