# Tiled2Unity generated file. Do not modify by hand.
# Wavefront file for 'village_1_mesh_0016.obj'

# Vertices (Count = 168)
v -27 -1 0
v -28 -1 0
v -28 0 0
v -27 0 0
v -26 -1 0
v -27 -1 0
v -27 0 0
v -26 0 0
v -10 -1 0
v -11 -1 0
v -11 0 0
v -10 0 0
v -9 -1 0
v -10 -1 0
v -10 0 0
v -9 0 0
v -8 -1 0
v -9 -1 0
v -9 0 0
v -8 0 0
v -7 -1 0
v -8 -1 0
v -8 0 0
v -7 0 0
v -6 -1 0
v -7 -1 0
v -7 0 0
v -6 0 0
v -27 -2 0
v -28 -2 0
v -28 -1 0
v -27 -1 0
v -26 -2 0
v -27 -2 0
v -27 -1 0
v -26 -1 0
v -10 -2 0
v -11 -2 0
v -11 -1 0
v -10 -1 0
v -9 -2 0
v -10 -2 0
v -10 -1 0
v -9 -1 0
v -8 -2 0
v -9 -2 0
v -9 -1 0
v -8 -1 0
v -7 -2 0
v -8 -2 0
v -8 -1 0
v -7 -1 0
v -6 -2 0
v -7 -2 0
v -7 -1 0
v -6 -1 0
v -10 -3 0
v -11 -3 0
v -11 -2 0
v -10 -2 0
v -9 -3 0
v -10 -3 0
v -10 -2 0
v -9 -2 0
v -8 -3 0
v -9 -3 0
v -9 -2 0
v -8 -2 0
v -7 -3 0
v -8 -3 0
v -8 -2 0
v -7 -2 0
v -6 -3 0
v -7 -3 0
v -7 -2 0
v -6 -2 0
v -10 -4 0
v -11 -4 0
v -11 -3 0
v -10 -3 0
v -9 -4 0
v -10 -4 0
v -10 -3 0
v -9 -3 0
v -8 -4 0
v -9 -4 0
v -9 -3 0
v -8 -3 0
v -7 -4 0
v -8 -4 0
v -8 -3 0
v -7 -3 0
v -6 -4 0
v -7 -4 0
v -7 -3 0
v -6 -3 0
v -26 -13 0
v -27 -13 0
v -27 -12 0
v -26 -12 0
v -25 -13 0
v -26 -13 0
v -26 -12 0
v -25 -12 0
v -24 -13 0
v -25 -13 0
v -25 -12 0
v -24 -12 0
v -26 -14 0
v -27 -14 0
v -27 -13 0
v -26 -13 0
v -25 -14 0
v -26 -14 0
v -26 -13 0
v -25 -13 0
v -24 -14 0
v -25 -14 0
v -25 -13 0
v -24 -13 0
v -21 -14 0
v -22 -14 0
v -22 -13 0
v -21 -13 0
v -20 -14 0
v -21 -14 0
v -21 -13 0
v -20 -13 0
v -19 -14 0
v -20 -14 0
v -20 -13 0
v -19 -13 0
v -26 -15 0
v -27 -15 0
v -27 -14 0
v -26 -14 0
v -25 -15 0
v -26 -15 0
v -26 -14 0
v -25 -14 0
v -24 -15 0
v -25 -15 0
v -25 -14 0
v -24 -14 0
v -21 -15 0
v -22 -15 0
v -22 -14 0
v -21 -14 0
v -20 -15 0
v -21 -15 0
v -21 -14 0
v -20 -14 0
v -19 -15 0
v -20 -15 0
v -20 -14 0
v -19 -14 0
v -26 -16 0
v -27 -16 0
v -27 -15 0
v -26 -15 0
v -25 -16 0
v -26 -16 0
v -26 -15 0
v -25 -15 0
v -24 -16 0
v -25 -16 0
v -25 -15 0
v -24 -15 0

# Texture cooridinates (Count = 78)
vt 0.1578947 0.9111111
vt 0.2105263 0.9111111
vt 0.2105263 0.9333333
vt 0.1578947 0.9333333
vt 0.2631579 0.9111111
vt 0.3157895 0.9111111
vt 0.3157895 0.9333333
vt 0.2631579 0.9333333
vt 0.7368421 0.5111111
vt 0.7894737 0.5111111
vt 0.7894737 0.5333333
vt 0.7368421 0.5333333
vt 0.6842105 0.5111111
vt 0.6842105 0.5333333
vt 0.6315789 0.5111111
vt 0.6315789 0.5333333
vt 0.5789474 0.5111111
vt 0.5789474 0.5333333
vt 0.5263158 0.5111111
vt 0.5263158 0.5333333
vt 0.1578947 0.9555556
vt 0.2105263 0.9555556
vt 0.2105263 0.9777778
vt 0.1578947 0.9777778
vt 0.2631579 0.9555556
vt 0.3157895 0.9555556
vt 0.3157895 0.9777778
vt 0.2631579 0.9777778
vt 0.7368421 0.4888889
vt 0.7894737 0.4888889
vt 0.6842105 0.4888889
vt 0.6315789 0.4888889
vt 0.5789474 0.4888889
vt 0.5263158 0.4888889
vt 0.7368421 0.4666666
vt 0.7894737 0.4666666
vt 0.6842105 0.4666666
vt 0.6315789 0.4666666
vt 0.5789474 0.4666666
vt 0.5263158 0.4666666
vt 0.7368421 0.4444444
vt 0.7894737 0.4444444
vt 0.6842105 0.4444444
vt 0.6315789 0.4444444
vt 0.5789474 0.4444444
vt 0.5263158 0.4444444
vt 0.6315789 0.2444444
vt 0.6842105 0.2444444
vt 0.6842105 0.2666667
vt 0.6315789 0.2666667
vt 0.5789474 0.2444444
vt 0.5789474 0.2666667
vt 0.5263158 0.2444444
vt 0.5263158 0.2666667
vt 0.6315789 0.2222222
vt 0.6842105 0.2222222
vt 0.5789474 0.2222222
vt 0.5263158 0.2222222
vt 0.9473684 0.2444444
vt 1 0.2444444
vt 1 0.2666667
vt 0.9473684 0.2666667
vt 0.8947368 0.2444444
vt 0.8947368 0.2666667
vt 0.8421053 0.2444444
vt 0.8421053 0.2666667
vt 0.6315789 0.2
vt 0.6842105 0.2
vt 0.5789474 0.2
vt 0.5263158 0.2
vt 0.9473684 0.2222222
vt 1 0.2222222
vt 0.8947368 0.2222222
vt 0.8421053 0.2222222
vt 0.6315789 0.1777778
vt 0.6842105 0.1777778
vt 0.5789474 0.1777778
vt 0.5263158 0.1777778

# Normal
vn 0 0 -1

# Mesh description
g village_1_mesh_0016

# Faces
f 1/1/1 2/2/1 3/3/1 4/4/1
f 5/5/1 6/6/1 7/7/1 8/8/1
f 9/9/1 10/10/1 11/11/1 12/12/1
f 13/13/1 14/9/1 15/12/1 16/14/1
f 17/15/1 18/13/1 19/14/1 20/16/1
f 21/17/1 22/15/1 23/16/1 24/18/1
f 25/19/1 26/17/1 27/18/1 28/20/1
f 29/21/1 30/22/1 31/23/1 32/24/1
f 33/25/1 34/26/1 35/27/1 36/28/1
f 37/29/1 38/30/1 39/10/1 40/9/1
f 41/31/1 42/29/1 43/9/1 44/13/1
f 45/32/1 46/31/1 47/13/1 48/15/1
f 49/33/1 50/32/1 51/15/1 52/17/1
f 53/34/1 54/33/1 55/17/1 56/19/1
f 57/35/1 58/36/1 59/30/1 60/29/1
f 61/37/1 62/35/1 63/29/1 64/31/1
f 65/38/1 66/37/1 67/31/1 68/32/1
f 69/39/1 70/38/1 71/32/1 72/33/1
f 73/40/1 74/39/1 75/33/1 76/34/1
f 77/41/1 78/42/1 79/36/1 80/35/1
f 81/43/1 82/41/1 83/35/1 84/37/1
f 85/44/1 86/43/1 87/37/1 88/38/1
f 89/45/1 90/44/1 91/38/1 92/39/1
f 93/46/1 94/45/1 95/39/1 96/40/1
f 97/47/1 98/48/1 99/49/1 100/50/1
f 101/51/1 102/47/1 103/50/1 104/52/1
f 105/53/1 106/51/1 107/52/1 108/54/1
f 109/55/1 110/56/1 111/48/1 112/47/1
f 113/57/1 114/55/1 115/47/1 116/51/1
f 117/58/1 118/57/1 119/51/1 120/53/1
f 121/59/1 122/60/1 123/61/1 124/62/1
f 125/63/1 126/59/1 127/62/1 128/64/1
f 129/65/1 130/63/1 131/64/1 132/66/1
f 133/67/1 134/68/1 135/56/1 136/55/1
f 137/69/1 138/67/1 139/55/1 140/57/1
f 141/70/1 142/69/1 143/57/1 144/58/1
f 145/71/1 146/72/1 147/60/1 148/59/1
f 149/73/1 150/71/1 151/59/1 152/63/1
f 153/74/1 154/73/1 155/63/1 156/65/1
f 157/75/1 158/76/1 159/68/1 160/67/1
f 161/77/1 162/75/1 163/67/1 164/69/1
f 165/78/1 166/77/1 167/69/1 168/70/1

