# Tiled2Unity generated file. Do not modify by hand.
# Wavefront file for 'village_1_mesh_0015.obj'

# Vertices (Count = 152)
v 0 -7 0
v -1 -7 0
v -1 -6 0
v 0 -6 0
v 0 -8 0
v -1 -8 0
v -1 -7 0
v 0 -7 0
v -2 -13 0
v -3 -13 0
v -3 -12 0
v -2 -12 0
v -1 -13 0
v -2 -13 0
v -2 -12 0
v -1 -12 0
v -2 -14 0
v -3 -14 0
v -3 -13 0
v -2 -13 0
v -1 -14 0
v -2 -14 0
v -2 -13 0
v -1 -13 0
v -7 -19 0
v -8 -19 0
v -8 -18 0
v -7 -18 0
v -6 -19 0
v -7 -19 0
v -7 -18 0
v -6 -18 0
v -7 -20 0
v -8 -20 0
v -8 -19 0
v -7 -19 0
v -6 -20 0
v -7 -20 0
v -7 -19 0
v -6 -19 0
v -2 -21 0
v -3 -21 0
v -3 -20 0
v -2 -20 0
v -1 -21 0
v -2 -21 0
v -2 -20 0
v -1 -20 0
v -2 -22 0
v -3 -22 0
v -3 -21 0
v -2 -21 0
v -1 -22 0
v -2 -22 0
v -2 -21 0
v -1 -21 0
v -19 -23 0
v -20 -23 0
v -20 -22 0
v -19 -22 0
v -18 -23 0
v -19 -23 0
v -19 -22 0
v -18 -22 0
v -15 -23 0
v -16 -23 0
v -16 -22 0
v -15 -22 0
v -14 -23 0
v -15 -23 0
v -15 -22 0
v -14 -22 0
v -13 -23 0
v -14 -23 0
v -14 -22 0
v -13 -22 0
v -12 -23 0
v -13 -23 0
v -13 -22 0
v -12 -22 0
v -11 -23 0
v -12 -23 0
v -12 -22 0
v -11 -22 0
v -10 -23 0
v -11 -23 0
v -11 -22 0
v -10 -22 0
v -7 -23 0
v -8 -23 0
v -8 -22 0
v -7 -22 0
v -6 -23 0
v -7 -23 0
v -7 -22 0
v -6 -22 0
v -1 -23 0
v -2 -23 0
v -2 -22 0
v -1 -22 0
v 0 -23 0
v -1 -23 0
v -1 -22 0
v 0 -22 0
v -19 -24 0
v -20 -24 0
v -20 -23 0
v -19 -23 0
v -18 -24 0
v -19 -24 0
v -19 -23 0
v -18 -23 0
v -15 -24 0
v -16 -24 0
v -16 -23 0
v -15 -23 0
v -14 -24 0
v -15 -24 0
v -15 -23 0
v -14 -23 0
v -13 -24 0
v -14 -24 0
v -14 -23 0
v -13 -23 0
v -12 -24 0
v -13 -24 0
v -13 -23 0
v -12 -23 0
v -11 -24 0
v -12 -24 0
v -12 -23 0
v -11 -23 0
v -10 -24 0
v -11 -24 0
v -11 -23 0
v -10 -23 0
v -7 -24 0
v -8 -24 0
v -8 -23 0
v -7 -23 0
v -6 -24 0
v -7 -24 0
v -7 -23 0
v -6 -23 0
v -1 -24 0
v -2 -24 0
v -2 -23 0
v -1 -23 0
v 0 -24 0
v -1 -24 0
v -1 -23 0
v 0 -23 0

# Texture cooridinates (Count = 15)
vt 0.8421053 0.4666666
vt 0.8947368 0.4666666
vt 0.8947368 0.4888889
vt 0.8421053 0.4888889
vt 0.8421053 0.4444444
vt 0.8947368 0.4444444
vt 0.7894737 0.4666666
vt 0.7894737 0.4888889
vt 0.7894737 0.4444444
vt 0.8421053 0.5111111
vt 0.8947368 0.5111111
vt 0.8947368 0.5333333
vt 0.8421053 0.5333333
vt 0.7894737 0.5111111
vt 0.7894737 0.5333333

# Normal
vn 0 0 -1

# Mesh description
g village_1_mesh_0015

# Faces
f 1/1/1 2/2/1 3/3/1 4/4/1
f 5/5/1 6/6/1 7/2/1 8/1/1
f 9/1/1 10/2/1 11/3/1 12/4/1
f 13/7/1 14/1/1 15/4/1 16/8/1
f 17/5/1 18/6/1 19/2/1 20/1/1
f 21/9/1 22/5/1 23/1/1 24/7/1
f 25/10/1 26/11/1 27/12/1 28/13/1
f 29/14/1 30/10/1 31/13/1 32/15/1
f 33/4/1 34/3/1 35/11/1 36/10/1
f 37/8/1 38/4/1 39/10/1 40/14/1
f 41/10/1 42/11/1 43/12/1 44/13/1
f 45/14/1 46/10/1 47/13/1 48/15/1
f 49/4/1 50/3/1 51/11/1 52/10/1
f 53/8/1 54/4/1 55/10/1 56/14/1
f 57/1/1 58/2/1 59/3/1 60/4/1
f 61/7/1 62/1/1 63/4/1 64/8/1
f 65/10/1 66/11/1 67/12/1 68/13/1
f 69/14/1 70/10/1 71/13/1 72/15/1
f 73/1/1 74/2/1 75/3/1 76/4/1
f 77/7/1 78/1/1 79/4/1 80/8/1
f 81/10/1 82/11/1 83/12/1 84/13/1
f 85/14/1 86/10/1 87/13/1 88/15/1
f 89/1/1 90/2/1 91/3/1 92/4/1
f 93/7/1 94/1/1 95/4/1 96/8/1
f 97/1/1 98/2/1 99/3/1 100/4/1
f 101/7/1 102/1/1 103/4/1 104/8/1
f 105/5/1 106/6/1 107/2/1 108/1/1
f 109/9/1 110/5/1 111/1/1 112/7/1
f 113/4/1 114/3/1 115/11/1 116/10/1
f 117/8/1 118/4/1 119/10/1 120/14/1
f 121/5/1 122/6/1 123/2/1 124/1/1
f 125/9/1 126/5/1 127/1/1 128/7/1
f 129/4/1 130/3/1 131/11/1 132/10/1
f 133/8/1 134/4/1 135/10/1 136/14/1
f 137/5/1 138/6/1 139/2/1 140/1/1
f 141/9/1 142/5/1 143/1/1 144/7/1
f 145/5/1 146/6/1 147/2/1 148/1/1
f 149/9/1 150/5/1 151/1/1 152/7/1

