# Tiled2Unity generated file. Do not modify by hand.
# Wavefront file for 'village_1_mesh_0010.obj'

# Vertices (Count = 132)
v -16 -1 0
v -17 -1 0
v -17 0 0
v -16 0 0
v -15 -1 0
v -16 -1 0
v -16 0 0
v -15 0 0
v -14 -1 0
v -15 -1 0
v -15 0 0
v -14 0 0
v -21 -2 0
v -22 -2 0
v -22 -1 0
v -21 -1 0
v -20 -2 0
v -21 -2 0
v -21 -1 0
v -20 -1 0
v -19 -2 0
v -20 -2 0
v -20 -1 0
v -19 -1 0
v -18 -2 0
v -19 -2 0
v -19 -1 0
v -18 -1 0
v -17 -2 0
v -18 -2 0
v -18 -1 0
v -17 -1 0
v -15 -2 0
v -16 -2 0
v -16 -1 0
v -15 -1 0
v -14 -2 0
v -15 -2 0
v -15 -1 0
v -14 -1 0
v -20 -3 0
v -21 -3 0
v -21 -2 0
v -20 -2 0
v -19 -3 0
v -20 -3 0
v -20 -2 0
v -19 -2 0
v -18 -3 0
v -19 -3 0
v -19 -2 0
v -18 -2 0
v -17 -3 0
v -18 -3 0
v -18 -2 0
v -17 -2 0
v -4 -4 0
v -5 -4 0
v -5 -3 0
v -4 -3 0
v -3 -4 0
v -4 -4 0
v -4 -3 0
v -3 -3 0
v -4 -5 0
v -5 -5 0
v -5 -4 0
v -4 -4 0
v -3 -5 0
v -4 -5 0
v -4 -4 0
v -3 -4 0
v -30 -11 0
v -31 -11 0
v -31 -10 0
v -30 -10 0
v -29 -11 0
v -30 -11 0
v -30 -10 0
v -29 -10 0
v -30 -12 0
v -31 -12 0
v -31 -11 0
v -30 -11 0
v -29 -12 0
v -30 -12 0
v -30 -11 0
v -29 -11 0
v -24 -13 0
v -25 -13 0
v -25 -12 0
v -24 -12 0
v -29 -14 0
v -30 -14 0
v -30 -13 0
v -29 -13 0
v -28 -14 0
v -29 -14 0
v -29 -13 0
v -28 -13 0
v -29 -15 0
v -30 -15 0
v -30 -14 0
v -29 -14 0
v -28 -15 0
v -29 -15 0
v -29 -14 0
v -28 -14 0
v -11 -17 0
v -12 -17 0
v -12 -16 0
v -11 -16 0
v -29 -18 0
v -30 -18 0
v -30 -17 0
v -29 -17 0
v -28 -18 0
v -29 -18 0
v -29 -17 0
v -28 -17 0
v -29 -19 0
v -30 -19 0
v -30 -18 0
v -29 -18 0
v -28 -19 0
v -29 -19 0
v -29 -18 0
v -28 -18 0
v -6 -21 0
v -7 -21 0
v -7 -20 0
v -6 -20 0

# Texture cooridinates (Count = 19)
vt 0.8421053 0.5111111
vt 0.8947368 0.5111111
vt 0.8947368 0.5333333
vt 0.8421053 0.5333333
vt 0.7894737 0.5111111
vt 0.7894737 0.5333333
vt 0.8421053 0.4888889
vt 0.8947368 0.4888889
vt 0.7894737 0.4888889
vt 0.9473684 0.5111111
vt 1 0.5111111
vt 1 0.5333333
vt 0.9473684 0.5333333
vt 0.9473684 0.4888889
vt 1 0.4888889
vt 0.05263158 0.5333333
vt 0.1052632 0.5333333
vt 0.1052632 0.5555556
vt 0.05263158 0.5555556

# Normal
vn 0 0 -1

# Mesh description
g village_1_mesh_0010

# Faces
f 1/1/1 2/2/1 3/3/1 4/4/1
f 5/1/1 6/2/1 7/3/1 8/4/1
f 9/5/1 10/1/1 11/4/1 12/6/1
f 13/1/1 14/2/1 15/3/1 16/4/1
f 17/1/1 18/2/1 19/3/1 20/4/1
f 21/5/1 22/1/1 23/4/1 24/6/1
f 25/1/1 26/2/1 27/3/1 28/4/1
f 29/5/1 30/1/1 31/4/1 32/6/1
f 33/7/1 34/8/1 35/2/1 36/1/1
f 37/9/1 38/7/1 39/1/1 40/5/1
f 41/7/1 42/8/1 43/2/1 44/1/1
f 45/9/1 46/7/1 47/1/1 48/5/1
f 49/7/1 50/8/1 51/2/1 52/1/1
f 53/9/1 54/7/1 55/1/1 56/5/1
f 57/1/1 58/2/1 59/3/1 60/4/1
f 61/5/1 62/1/1 63/4/1 64/6/1
f 65/7/1 66/8/1 67/2/1 68/1/1
f 69/9/1 70/7/1 71/1/1 72/5/1
f 73/10/1 74/11/1 75/12/1 76/13/1
f 77/2/1 78/10/1 79/13/1 80/3/1
f 81/14/1 82/15/1 83/11/1 84/10/1
f 85/8/1 86/14/1 87/10/1 88/2/1
f 89/16/1 90/17/1 91/18/1 92/19/1
f 93/10/1 94/11/1 95/12/1 96/13/1
f 97/2/1 98/10/1 99/13/1 100/3/1
f 101/14/1 102/15/1 103/11/1 104/10/1
f 105/8/1 106/14/1 107/10/1 108/2/1
f 109/16/1 110/17/1 111/18/1 112/19/1
f 113/10/1 114/11/1 115/12/1 116/13/1
f 117/2/1 118/10/1 119/13/1 120/3/1
f 121/14/1 122/15/1 123/11/1 124/10/1
f 125/8/1 126/14/1 127/10/1 128/2/1
f 129/16/1 130/17/1 131/18/1 132/19/1

