# Tiled2Unity generated file. Do not modify by hand.
# Wavefront file for 'village_1_mesh_0008.obj'

# Vertices (Count = 32)
v -4 -2 0
v -5 -2 0
v -5 -1 0
v -4 -1 0
v -3 -2 0
v -4 -2 0
v -4 -1 0
v -3 -1 0
v -4 -3 0
v -5 -3 0
v -5 -2 0
v -4 -2 0
v -3 -3 0
v -4 -3 0
v -4 -2 0
v -3 -2 0
v -30 -20 0
v -31 -20 0
v -31 -19 0
v -30 -19 0
v -29 -20 0
v -30 -20 0
v -30 -19 0
v -29 -19 0
v -30 -21 0
v -31 -21 0
v -31 -20 0
v -30 -20 0
v -29 -21 0
v -30 -21 0
v -30 -20 0
v -29 -20 0

# Texture cooridinates (Count = 15)
vt 0.8421053 0.5111111
vt 0.8947368 0.5111111
vt 0.8947368 0.5333333
vt 0.8421053 0.5333333
vt 0.7894737 0.5111111
vt 0.7894737 0.5333333
vt 0.8421053 0.4888889
vt 0.8947368 0.4888889
vt 0.7894737 0.4888889
vt 0.9473684 0.5111111
vt 1 0.5111111
vt 1 0.5333333
vt 0.9473684 0.5333333
vt 0.9473684 0.4888889
vt 1 0.4888889

# Normal
vn 0 0 -1

# Mesh description
g village_1_mesh_0008

# Faces
f 1/1/1 2/2/1 3/3/1 4/4/1
f 5/5/1 6/1/1 7/4/1 8/6/1
f 9/7/1 10/8/1 11/2/1 12/1/1
f 13/9/1 14/7/1 15/1/1 16/5/1
f 17/10/1 18/11/1 19/12/1 20/13/1
f 21/2/1 22/10/1 23/13/1 24/3/1
f 25/14/1 26/15/1 27/11/1 28/10/1
f 29/8/1 30/14/1 31/10/1 32/2/1

