# Tiled2Unity generated file. Do not modify by hand.
# Wavefront file for 'village_1_mesh_0002.obj'

# Vertices (Count = 252)
v -11 -3 0
v -12 -3 0
v -12 -2 0
v -11 -2 0
v -12 -4 0
v -13 -4 0
v -13 -3 0
v -12 -3 0
v -11 -4 0
v -12 -4 0
v -12 -3 0
v -11 -3 0
v -24 -5 0
v -25 -5 0
v -25 -4 0
v -24 -4 0
v -22 -5 0
v -23 -5 0
v -23 -4 0
v -22 -4 0
v -11 -5 0
v -12 -5 0
v -12 -4 0
v -11 -4 0
v -28 -6 0
v -29 -6 0
v -29 -5 0
v -28 -5 0
v -23 -6 0
v -24 -6 0
v -24 -5 0
v -23 -5 0
v -22 -6 0
v -23 -6 0
v -23 -5 0
v -22 -5 0
v -20 -6 0
v -21 -6 0
v -21 -5 0
v -20 -5 0
v -16 -6 0
v -17 -6 0
v -17 -5 0
v -16 -5 0
v -13 -6 0
v -14 -6 0
v -14 -5 0
v -13 -5 0
v -12 -6 0
v -13 -6 0
v -13 -5 0
v -12 -5 0
v -11 -6 0
v -12 -6 0
v -12 -5 0
v -11 -5 0
v -4 -6 0
v -5 -6 0
v -5 -5 0
v -4 -5 0
v -3 -6 0
v -4 -6 0
v -4 -5 0
v -3 -5 0
v -4 -7 0
v -5 -7 0
v -5 -6 0
v -4 -6 0
v -3 -7 0
v -4 -7 0
v -4 -6 0
v -3 -6 0
v -27 -8 0
v -28 -8 0
v -28 -7 0
v -27 -7 0
v -4 -8 0
v -5 -8 0
v -5 -7 0
v -4 -7 0
v -4 -9 0
v -5 -9 0
v -5 -8 0
v -4 -8 0
v -27 -10 0
v -28 -10 0
v -28 -9 0
v -27 -9 0
v -25 -10 0
v -26 -10 0
v -26 -9 0
v -25 -9 0
v -24 -10 0
v -25 -10 0
v -25 -9 0
v -24 -9 0
v -11 -10 0
v -12 -10 0
v -12 -9 0
v -11 -9 0
v -10 -10 0
v -11 -10 0
v -11 -9 0
v -10 -9 0
v -8 -13 0
v -9 -13 0
v -9 -12 0
v -8 -12 0
v -23 -14 0
v -24 -14 0
v -24 -13 0
v -23 -13 0
v -12 -14 0
v -13 -14 0
v -13 -13 0
v -12 -13 0
v -9 -14 0
v -10 -14 0
v -10 -13 0
v -9 -13 0
v -23 -15 0
v -24 -15 0
v -24 -14 0
v -23 -14 0
v -18 -15 0
v -19 -15 0
v -19 -14 0
v -18 -14 0
v -9 -15 0
v -10 -15 0
v -10 -14 0
v -9 -14 0
v -21 -16 0
v -22 -16 0
v -22 -15 0
v -21 -15 0
v -15 -16 0
v -16 -16 0
v -16 -15 0
v -15 -15 0
v -13 -16 0
v -14 -16 0
v -14 -15 0
v -13 -15 0
v -11 -16 0
v -12 -16 0
v -12 -15 0
v -11 -15 0
v -20 -17 0
v -21 -17 0
v -21 -16 0
v -20 -16 0
v -19 -17 0
v -20 -17 0
v -20 -16 0
v -19 -16 0
v -17 -17 0
v -18 -17 0
v -18 -16 0
v -17 -16 0
v -16 -17 0
v -17 -17 0
v -17 -16 0
v -16 -16 0
v -27 -18 0
v -28 -18 0
v -28 -17 0
v -27 -17 0
v -24 -18 0
v -25 -18 0
v -25 -17 0
v -24 -17 0
v -22 -18 0
v -23 -18 0
v -23 -17 0
v -22 -17 0
v -21 -18 0
v -22 -18 0
v -22 -17 0
v -21 -17 0
v -4 -18 0
v -5 -18 0
v -5 -17 0
v -4 -17 0
v -23 -19 0
v -24 -19 0
v -24 -18 0
v -23 -18 0
v -5 -19 0
v -6 -19 0
v -6 -18 0
v -5 -18 0
v -4 -19 0
v -5 -19 0
v -5 -18 0
v -4 -18 0
v -28 -20 0
v -29 -20 0
v -29 -19 0
v -28 -19 0
v -5 -20 0
v -6 -20 0
v -6 -19 0
v -5 -19 0
v -4 -20 0
v -5 -20 0
v -5 -19 0
v -4 -19 0
v -17 -21 0
v -18 -21 0
v -18 -20 0
v -17 -20 0
v -15 -21 0
v -16 -21 0
v -16 -20 0
v -15 -20 0
v -13 -21 0
v -14 -21 0
v -14 -20 0
v -13 -20 0
v -8 -21 0
v -9 -21 0
v -9 -20 0
v -8 -20 0
v -5 -21 0
v -6 -21 0
v -6 -20 0
v -5 -20 0
v -9 -22 0
v -10 -22 0
v -10 -21 0
v -9 -21 0
v -8 -22 0
v -9 -22 0
v -9 -21 0
v -8 -21 0
v -21 -23 0
v -22 -23 0
v -22 -22 0
v -21 -22 0
v -20 -23 0
v -21 -23 0
v -21 -22 0
v -20 -22 0
v -30 -24 0
v -31 -24 0
v -31 -23 0
v -30 -23 0
v -21 -24 0
v -22 -24 0
v -22 -23 0
v -21 -23 0

# Texture cooridinates (Count = 31)
vt 0.2105263 0.5555556
vt 0.2631579 0.5555556
vt 0.2631579 0.5777777
vt 0.2105263 0.5777777
vt 0.368421 0.5555556
vt 0.4210526 0.5555556
vt 0.4210526 0.5777777
vt 0.368421 0.5777777
vt 0.3157895 0.5555556
vt 0.3157895 0.5777777
vt 0.1052632 0.6666666
vt 0.1578947 0.6666666
vt 0.1578947 0.6888889
vt 0.1052632 0.6888889
vt 0.1578947 0.7111111
vt 0.1052632 0.7111111
vt 0.2631579 0.7111111
vt 0.3157895 0.7111111
vt 0.3157895 0.7333333
vt 0.2631579 0.7333333
vt 0.7894737 0.3111111
vt 0.8421053 0.3111111
vt 0.8421053 0.3333333
vt 0.7894737 0.3333333
vt 0.8421053 0.2888889
vt 0.8947368 0.2888889
vt 0.8947368 0.3111111
vt 0.05263158 0.5333333
vt 0.1052632 0.5333333
vt 0.1052632 0.5555556
vt 0.05263158 0.5555556

# Normal
vn 0 0 -1

# Mesh description
g village_1_mesh_0002

# Faces
f 1/1/1 2/2/1 3/3/1 4/4/1
f 5/5/1 6/6/1 7/7/1 8/8/1
f 9/9/1 10/5/1 11/8/1 12/10/1
f 13/11/1 14/12/1 15/13/1 16/14/1
f 17/14/1 18/13/1 19/15/1 20/16/1
f 21/14/1 22/13/1 23/15/1 24/16/1
f 25/14/1 26/13/1 27/15/1 28/16/1
f 29/11/1 30/12/1 31/13/1 32/14/1
f 33/14/1 34/13/1 35/15/1 36/16/1
f 37/14/1 38/13/1 39/15/1 40/16/1
f 41/14/1 42/13/1 43/15/1 44/16/1
f 45/14/1 46/13/1 47/15/1 48/16/1
f 49/14/1 50/13/1 51/15/1 52/16/1
f 53/11/1 54/12/1 55/13/1 56/14/1
f 57/14/1 58/13/1 59/15/1 60/16/1
f 61/14/1 62/13/1 63/15/1 64/16/1
f 65/11/1 66/12/1 67/13/1 68/14/1
f 69/14/1 70/13/1 71/15/1 72/16/1
f 73/11/1 74/12/1 75/13/1 76/14/1
f 77/14/1 78/13/1 79/15/1 80/16/1
f 81/14/1 82/13/1 83/15/1 84/16/1
f 85/14/1 86/13/1 87/15/1 88/16/1
f 89/14/1 90/13/1 91/15/1 92/16/1
f 93/14/1 94/13/1 95/15/1 96/16/1
f 97/14/1 98/13/1 99/15/1 100/16/1
f 101/14/1 102/13/1 103/15/1 104/16/1
f 105/14/1 106/13/1 107/15/1 108/16/1
f 109/17/1 110/18/1 111/19/1 112/20/1
f 113/14/1 114/13/1 115/15/1 116/16/1
f 117/14/1 118/13/1 119/15/1 120/16/1
f 121/17/1 122/18/1 123/19/1 124/20/1
f 125/14/1 126/13/1 127/15/1 128/16/1
f 129/11/1 130/12/1 131/13/1 132/14/1
f 133/14/1 134/13/1 135/15/1 136/16/1
f 137/21/1 138/22/1 139/23/1 140/24/1
f 141/14/1 142/13/1 143/15/1 144/16/1
f 145/14/1 146/13/1 147/15/1 148/16/1
f 149/14/1 150/13/1 151/15/1 152/16/1
f 153/11/1 154/12/1 155/13/1 156/14/1
f 157/14/1 158/13/1 159/15/1 160/16/1
f 161/14/1 162/13/1 163/15/1 164/16/1
f 165/25/1 166/26/1 167/27/1 168/22/1
f 169/28/1 170/29/1 171/30/1 172/31/1
f 173/11/1 174/12/1 175/13/1 176/14/1
f 177/14/1 178/13/1 179/15/1 180/16/1
f 181/14/1 182/13/1 183/15/1 184/16/1
f 185/14/1 186/13/1 187/15/1 188/16/1
f 189/14/1 190/13/1 191/15/1 192/16/1
f 193/14/1 194/13/1 195/15/1 196/16/1
f 197/25/1 198/26/1 199/27/1 200/22/1
f 201/11/1 202/12/1 203/13/1 204/14/1
f 205/14/1 206/13/1 207/15/1 208/16/1
f 209/11/1 210/12/1 211/13/1 212/14/1
f 213/14/1 214/13/1 215/15/1 216/16/1
f 217/14/1 218/13/1 219/15/1 220/16/1
f 221/14/1 222/13/1 223/15/1 224/16/1
f 225/14/1 226/13/1 227/15/1 228/16/1
f 229/14/1 230/13/1 231/15/1 232/16/1
f 233/14/1 234/13/1 235/15/1 236/16/1
f 237/11/1 238/12/1 239/13/1 240/14/1
f 241/14/1 242/13/1 243/15/1 244/16/1
f 245/25/1 246/26/1 247/27/1 248/22/1
f 249/14/1 250/13/1 251/15/1 252/16/1

