# Tiled2Unity generated file. Do not modify by hand.
# Wavefront file for 'village_1_mesh_0013.obj'

# Vertices (Count = 168)
v -3 -20 0
v -4 -20 0
v -4 -19 0
v -3 -19 0
v -2 -20 0
v -3 -20 0
v -3 -19 0
v -2 -19 0
v -1 -20 0
v -2 -20 0
v -2 -19 0
v -1 -19 0
v 0 -20 0
v -1 -20 0
v -1 -19 0
v 0 -19 0
v -3 -21 0
v -4 -21 0
v -4 -20 0
v -3 -20 0
v -2 -21 0
v -3 -21 0
v -3 -20 0
v -2 -20 0
v -1 -21 0
v -2 -21 0
v -2 -20 0
v -1 -20 0
v 0 -21 0
v -1 -21 0
v -1 -20 0
v 0 -20 0
v -16 -22 0
v -17 -22 0
v -17 -21 0
v -16 -21 0
v -15 -22 0
v -16 -22 0
v -16 -21 0
v -15 -21 0
v -14 -22 0
v -15 -22 0
v -15 -21 0
v -14 -21 0
v -13 -22 0
v -14 -22 0
v -14 -21 0
v -13 -21 0
v -12 -22 0
v -13 -22 0
v -13 -21 0
v -12 -21 0
v -8 -22 0
v -9 -22 0
v -9 -21 0
v -8 -21 0
v -7 -22 0
v -8 -22 0
v -8 -21 0
v -7 -21 0
v -6 -22 0
v -7 -22 0
v -7 -21 0
v -6 -21 0
v -5 -22 0
v -6 -22 0
v -6 -21 0
v -5 -21 0
v -4 -22 0
v -5 -22 0
v -5 -21 0
v -4 -21 0
v -3 -22 0
v -4 -22 0
v -4 -21 0
v -3 -21 0
v -2 -22 0
v -3 -22 0
v -3 -21 0
v -2 -21 0
v -1 -22 0
v -2 -22 0
v -2 -21 0
v -1 -21 0
v 0 -22 0
v -1 -22 0
v -1 -21 0
v 0 -21 0
v -16 -23 0
v -17 -23 0
v -17 -22 0
v -16 -22 0
v -15 -23 0
v -16 -23 0
v -16 -22 0
v -15 -22 0
v -14 -23 0
v -15 -23 0
v -15 -22 0
v -14 -22 0
v -13 -23 0
v -14 -23 0
v -14 -22 0
v -13 -22 0
v -12 -23 0
v -13 -23 0
v -13 -22 0
v -12 -22 0
v -8 -23 0
v -9 -23 0
v -9 -22 0
v -8 -22 0
v -7 -23 0
v -8 -23 0
v -8 -22 0
v -7 -22 0
v -6 -23 0
v -7 -23 0
v -7 -22 0
v -6 -22 0
v -5 -23 0
v -6 -23 0
v -6 -22 0
v -5 -22 0
v -4 -23 0
v -5 -23 0
v -5 -22 0
v -4 -22 0
v -16 -24 0
v -17 -24 0
v -17 -23 0
v -16 -23 0
v -15 -24 0
v -16 -24 0
v -16 -23 0
v -15 -23 0
v -14 -24 0
v -15 -24 0
v -15 -23 0
v -14 -23 0
v -13 -24 0
v -14 -24 0
v -14 -23 0
v -13 -23 0
v -12 -24 0
v -13 -24 0
v -13 -23 0
v -12 -23 0
v -8 -24 0
v -9 -24 0
v -9 -23 0
v -8 -23 0
v -7 -24 0
v -8 -24 0
v -8 -23 0
v -7 -23 0
v -6 -24 0
v -7 -24 0
v -7 -23 0
v -6 -23 0
v -5 -24 0
v -6 -24 0
v -6 -23 0
v -5 -23 0
v -4 -24 0
v -5 -24 0
v -5 -23 0
v -4 -23 0

# Texture cooridinates (Count = 24)
vt 0.6842105 0.5777777
vt 0.7368421 0.5777777
vt 0.7368421 0.6
vt 0.6842105 0.6
vt 0.6315789 0.5777777
vt 0.6315789 0.6
vt 0.5789474 0.5777777
vt 0.5789474 0.6
vt 0.5263158 0.5777777
vt 0.5263158 0.6
vt 0.6842105 0.5555556
vt 0.7368421 0.5555556
vt 0.6315789 0.5555556
vt 0.5789474 0.5555556
vt 0.5263158 0.5555556
vt 0.4736842 0.5777777
vt 0.4736842 0.6
vt 0.6842105 0.5333333
vt 0.7368421 0.5333333
vt 0.6315789 0.5333333
vt 0.5789474 0.5333333
vt 0.5263158 0.5333333
vt 0.4736842 0.5555556
vt 0.4736842 0.5333333

# Normal
vn 0 0 -1

# Mesh description
g village_1_mesh_0013

# Faces
f 1/1/1 2/2/1 3/3/1 4/4/1
f 5/5/1 6/1/1 7/4/1 8/6/1
f 9/7/1 10/5/1 11/6/1 12/8/1
f 13/9/1 14/7/1 15/8/1 16/10/1
f 17/11/1 18/12/1 19/2/1 20/1/1
f 21/13/1 22/11/1 23/1/1 24/5/1
f 25/14/1 26/13/1 27/5/1 28/7/1
f 29/15/1 30/14/1 31/7/1 32/9/1
f 33/1/1 34/2/1 35/3/1 36/4/1
f 37/5/1 38/1/1 39/4/1 40/6/1
f 41/7/1 42/5/1 43/6/1 44/8/1
f 45/9/1 46/7/1 47/8/1 48/10/1
f 49/16/1 50/9/1 51/10/1 52/17/1
f 53/1/1 54/2/1 55/3/1 56/4/1
f 57/5/1 58/1/1 59/4/1 60/6/1
f 61/7/1 62/5/1 63/6/1 64/8/1
f 65/9/1 66/7/1 67/8/1 68/10/1
f 69/16/1 70/9/1 71/10/1 72/17/1
f 73/18/1 74/19/1 75/12/1 76/11/1
f 77/20/1 78/18/1 79/11/1 80/13/1
f 81/21/1 82/20/1 83/13/1 84/14/1
f 85/22/1 86/21/1 87/14/1 88/15/1
f 89/11/1 90/12/1 91/2/1 92/1/1
f 93/13/1 94/11/1 95/1/1 96/5/1
f 97/14/1 98/13/1 99/5/1 100/7/1
f 101/15/1 102/14/1 103/7/1 104/9/1
f 105/23/1 106/15/1 107/9/1 108/16/1
f 109/11/1 110/12/1 111/2/1 112/1/1
f 113/13/1 114/11/1 115/1/1 116/5/1
f 117/14/1 118/13/1 119/5/1 120/7/1
f 121/15/1 122/14/1 123/7/1 124/9/1
f 125/23/1 126/15/1 127/9/1 128/16/1
f 129/18/1 130/19/1 131/12/1 132/11/1
f 133/20/1 134/18/1 135/11/1 136/13/1
f 137/21/1 138/20/1 139/13/1 140/14/1
f 141/22/1 142/21/1 143/14/1 144/15/1
f 145/24/1 146/22/1 147/15/1 148/23/1
f 149/18/1 150/19/1 151/12/1 152/11/1
f 153/20/1 154/18/1 155/11/1 156/13/1
f 157/21/1 158/20/1 159/13/1 160/14/1
f 161/22/1 162/21/1 163/14/1 164/15/1
f 165/24/1 166/22/1 167/15/1 168/23/1

