# Tiled2Unity generated file. Do not modify by hand.
# Wavefront file for 'village_1_mesh_0004.obj'

# Vertices (Count = 280)
v -18 -1 0
v -19 -1 0
v -19 0 0
v -18 0 0
v -17 -1 0
v -18 -1 0
v -18 0 0
v -17 0 0
v -16 -1 0
v -17 -1 0
v -17 0 0
v -16 0 0
v -15 -1 0
v -16 -1 0
v -16 0 0
v -15 0 0
v -14 -1 0
v -15 -1 0
v -15 0 0
v -14 0 0
v -13 -1 0
v -14 -1 0
v -14 0 0
v -13 0 0
v -12 -1 0
v -13 -1 0
v -13 0 0
v -12 0 0
v -11 -1 0
v -12 -1 0
v -12 0 0
v -11 0 0
v -10 -1 0
v -11 -1 0
v -11 0 0
v -10 0 0
v -9 -1 0
v -10 -1 0
v -10 0 0
v -9 0 0
v -8 -1 0
v -9 -1 0
v -9 0 0
v -8 0 0
v -7 -1 0
v -8 -1 0
v -8 0 0
v -7 0 0
v -6 -1 0
v -7 -1 0
v -7 0 0
v -6 0 0
v -5 -1 0
v -6 -1 0
v -6 0 0
v -5 0 0
v -4 -1 0
v -5 -1 0
v -5 0 0
v -4 0 0
v -3 -1 0
v -4 -1 0
v -4 0 0
v -3 0 0
v -2 -1 0
v -3 -1 0
v -3 0 0
v -2 0 0
v -1 -1 0
v -2 -1 0
v -2 0 0
v -1 0 0
v 0 -1 0
v -1 -1 0
v -1 0 0
v 0 0 0
v -18 -2 0
v -19 -2 0
v -19 -1 0
v -18 -1 0
v -17 -2 0
v -18 -2 0
v -18 -1 0
v -17 -1 0
v -16 -2 0
v -17 -2 0
v -17 -1 0
v -16 -1 0
v -15 -2 0
v -16 -2 0
v -16 -1 0
v -15 -1 0
v -14 -2 0
v -15 -2 0
v -15 -1 0
v -14 -1 0
v -1 -2 0
v -2 -2 0
v -2 -1 0
v -1 -1 0
v 0 -2 0
v -1 -2 0
v -1 -1 0
v 0 -1 0
v -1 -3 0
v -2 -3 0
v -2 -2 0
v -1 -2 0
v 0 -3 0
v -1 -3 0
v -1 -2 0
v 0 -2 0
v -1 -4 0
v -2 -4 0
v -2 -3 0
v -1 -3 0
v 0 -4 0
v -1 -4 0
v -1 -3 0
v 0 -3 0
v -1 -5 0
v -2 -5 0
v -2 -4 0
v -1 -4 0
v 0 -5 0
v -1 -5 0
v -1 -4 0
v 0 -4 0
v -1 -6 0
v -2 -6 0
v -2 -5 0
v -1 -5 0
v 0 -6 0
v -1 -6 0
v -1 -5 0
v 0 -5 0
v -1 -7 0
v -2 -7 0
v -2 -6 0
v -1 -6 0
v 0 -7 0
v -1 -7 0
v -1 -6 0
v 0 -6 0
v -1 -8 0
v -2 -8 0
v -2 -7 0
v -1 -7 0
v 0 -8 0
v -1 -8 0
v -1 -7 0
v 0 -7 0
v -14 -9 0
v -15 -9 0
v -15 -8 0
v -14 -8 0
v -13 -9 0
v -14 -9 0
v -14 -8 0
v -13 -8 0
v -1 -9 0
v -2 -9 0
v -2 -8 0
v -1 -8 0
v 0 -9 0
v -1 -9 0
v -1 -8 0
v 0 -8 0
v -31 -10 0
v -32 -10 0
v -32 -9 0
v -31 -9 0
v -30 -10 0
v -31 -10 0
v -31 -9 0
v -30 -9 0
v -29 -10 0
v -30 -10 0
v -30 -9 0
v -29 -9 0
v -14 -10 0
v -15 -10 0
v -15 -9 0
v -14 -9 0
v -13 -10 0
v -14 -10 0
v -14 -9 0
v -13 -9 0
v -31 -11 0
v -32 -11 0
v -32 -10 0
v -31 -10 0
v -30 -11 0
v -31 -11 0
v -31 -10 0
v -30 -10 0
v -29 -11 0
v -30 -11 0
v -30 -10 0
v -29 -10 0
v -31 -12 0
v -32 -12 0
v -32 -11 0
v -31 -11 0
v -30 -12 0
v -31 -12 0
v -31 -11 0
v -30 -11 0
v -29 -12 0
v -30 -12 0
v -30 -11 0
v -29 -11 0
v -14 -13 0
v -15 -13 0
v -15 -12 0
v -14 -12 0
v -13 -13 0
v -14 -13 0
v -14 -12 0
v -13 -12 0
v -14 -14 0
v -15 -14 0
v -15 -13 0
v -14 -13 0
v -13 -14 0
v -14 -14 0
v -14 -13 0
v -13 -13 0
v -31 -18 0
v -32 -18 0
v -32 -17 0
v -31 -17 0
v -30 -18 0
v -31 -18 0
v -31 -17 0
v -30 -17 0
v -29 -18 0
v -30 -18 0
v -30 -17 0
v -29 -17 0
v -31 -19 0
v -32 -19 0
v -32 -18 0
v -31 -18 0
v -30 -19 0
v -31 -19 0
v -31 -18 0
v -30 -18 0
v -29 -19 0
v -30 -19 0
v -30 -18 0
v -29 -18 0
v -31 -20 0
v -32 -20 0
v -32 -19 0
v -31 -19 0
v -30 -20 0
v -31 -20 0
v -31 -19 0
v -30 -19 0
v -29 -20 0
v -30 -20 0
v -30 -19 0
v -29 -19 0
v -22 -23 0
v -23 -23 0
v -23 -22 0
v -22 -22 0
v -21 -23 0
v -22 -23 0
v -22 -22 0
v -21 -22 0
v -22 -24 0
v -23 -24 0
v -23 -23 0
v -22 -23 0
v -21 -24 0
v -22 -24 0
v -22 -23 0
v -21 -23 0

# Texture cooridinates (Count = 54)
vt 0.6842105 0.5555556
vt 0.7368421 0.5555556
vt 0.7368421 0.5777777
vt 0.6842105 0.5777777
vt 0.6315789 0.5555556
vt 0.6315789 0.5777777
vt 0.5789474 0.5555556
vt 0.5789474 0.5777777
vt 0.5263158 0.5555556
vt 0.5263158 0.5777777
vt 0.4736842 0.5555556
vt 0.4736842 0.5777777
vt 0.5789474 0.5333333
vt 0.6315789 0.5333333
vt 0.5263158 0.5333333
vt 0.4736842 0.5333333
vt 0.6842105 0.5333333
vt 0.7368421 0.5333333
vt 0.7368421 0.6
vt 0.6842105 0.6
vt 0.6315789 0.6
vt 0.9473684 0.6888889
vt 1 0.6888889
vt 1 0.7111111
vt 0.9473684 0.7111111
vt 0.8947368 0.6888889
vt 0.8947368 0.7111111
vt 0.5789474 0.6444445
vt 0.6315789 0.6444445
vt 0.6315789 0.6666666
vt 0.5789474 0.6666666
vt 0.5263158 0.6444445
vt 0.5263158 0.6666666
vt 0.4736842 0.6444445
vt 0.4736842 0.6666666
vt 0.9473684 0.6666666
vt 1 0.6666666
vt 0.8947368 0.6666666
vt 0.5789474 0.6222222
vt 0.6315789 0.6222222
vt 0.5263158 0.6222222
vt 0.4736842 0.6222222
vt 0.5789474 0.6
vt 0.5263158 0.6
vt 0.4736842 0.6
vt 0.7368421 0.7111111
vt 0.7894737 0.7111111
vt 0.7894737 0.7333333
vt 0.7368421 0.7333333
vt 0.6842105 0.7111111
vt 0.6842105 0.7333333
vt 0.7368421 0.6888889
vt 0.7894737 0.6888889
vt 0.6842105 0.6888889

# Normal
vn 0 0 -1

# Mesh description
g village_1_mesh_0004

# Faces
f 1/1/1 2/2/1 3/3/1 4/4/1
f 5/5/1 6/1/1 7/4/1 8/6/1
f 9/7/1 10/5/1 11/6/1 12/8/1
f 13/9/1 14/7/1 15/8/1 16/10/1
f 17/11/1 18/9/1 19/10/1 20/12/1
f 21/13/1 22/14/1 23/5/1 24/7/1
f 25/15/1 26/13/1 27/7/1 28/9/1
f 29/16/1 30/15/1 31/9/1 32/11/1
f 33/14/1 34/17/1 35/1/1 36/5/1
f 37/13/1 38/14/1 39/5/1 40/7/1
f 41/15/1 42/13/1 43/7/1 44/9/1
f 45/16/1 46/15/1 47/9/1 48/11/1
f 49/14/1 50/17/1 51/1/1 52/5/1
f 53/13/1 54/14/1 55/5/1 56/7/1
f 57/15/1 58/13/1 59/7/1 60/9/1
f 61/16/1 62/15/1 63/9/1 64/11/1
f 65/14/1 66/17/1 67/1/1 68/5/1
f 69/13/1 70/14/1 71/5/1 72/7/1
f 73/15/1 74/13/1 75/7/1 76/9/1
f 77/17/1 78/18/1 79/2/1 80/1/1
f 81/14/1 82/17/1 83/1/1 84/5/1
f 85/13/1 86/14/1 87/5/1 88/7/1
f 89/15/1 90/13/1 91/7/1 92/9/1
f 93/16/1 94/15/1 95/9/1 96/11/1
f 97/4/1 98/3/1 99/19/1 100/20/1
f 101/6/1 102/4/1 103/20/1 104/21/1
f 105/1/1 106/2/1 107/3/1 108/4/1
f 109/5/1 110/1/1 111/4/1 112/6/1
f 113/17/1 114/18/1 115/2/1 116/1/1
f 117/14/1 118/17/1 119/1/1 120/5/1
f 121/1/1 122/2/1 123/3/1 124/4/1
f 125/5/1 126/1/1 127/4/1 128/6/1
f 129/17/1 130/18/1 131/2/1 132/1/1
f 133/14/1 134/17/1 135/1/1 136/5/1
f 137/4/1 138/3/1 139/19/1 140/20/1
f 141/6/1 142/4/1 143/20/1 144/21/1
f 145/1/1 146/2/1 147/3/1 148/4/1
f 149/5/1 150/1/1 151/4/1 152/6/1
f 153/22/1 154/23/1 155/24/1 156/25/1
f 157/26/1 158/22/1 159/25/1 160/27/1
f 161/17/1 162/18/1 163/2/1 164/1/1
f 165/14/1 166/17/1 167/1/1 168/5/1
f 169/28/1 170/29/1 171/30/1 172/31/1
f 173/32/1 174/28/1 175/31/1 176/33/1
f 177/34/1 178/32/1 179/33/1 180/35/1
f 181/36/1 182/37/1 183/23/1 184/22/1
f 185/38/1 186/36/1 187/22/1 188/26/1
f 189/39/1 190/40/1 191/29/1 192/28/1
f 193/41/1 194/39/1 195/28/1 196/32/1
f 197/42/1 198/41/1 199/32/1 200/34/1
f 201/43/1 202/21/1 203/40/1 204/39/1
f 205/44/1 206/43/1 207/39/1 208/41/1
f 209/45/1 210/44/1 211/41/1 212/42/1
f 213/22/1 214/23/1 215/24/1 216/25/1
f 217/26/1 218/22/1 219/25/1 220/27/1
f 221/36/1 222/37/1 223/23/1 224/22/1
f 225/38/1 226/36/1 227/22/1 228/26/1
f 229/28/1 230/29/1 231/30/1 232/31/1
f 233/32/1 234/28/1 235/31/1 236/33/1
f 237/34/1 238/32/1 239/33/1 240/35/1
f 241/39/1 242/40/1 243/29/1 244/28/1
f 245/41/1 246/39/1 247/28/1 248/32/1
f 249/42/1 250/41/1 251/32/1 252/34/1
f 253/43/1 254/21/1 255/40/1 256/39/1
f 257/44/1 258/43/1 259/39/1 260/41/1
f 261/45/1 262/44/1 263/41/1 264/42/1
f 265/46/1 266/47/1 267/48/1 268/49/1
f 269/50/1 270/46/1 271/49/1 272/51/1
f 273/52/1 274/53/1 275/47/1 276/46/1
f 277/54/1 278/52/1 279/46/1 280/50/1

