# Tiled2Unity generated file. Do not modify by hand.
# Wavefront file for 'village_1_mesh_0007.obj'

# Vertices (Count = 388)
v -23 -1 0
v -24 -1 0
v -24 0 0
v -23 0 0
v -22 -1 0
v -23 -1 0
v -23 0 0
v -22 0 0
v -21 -1 0
v -22 -1 0
v -22 0 0
v -21 0 0
v -20 -1 0
v -21 -1 0
v -21 0 0
v -20 0 0
v -19 -1 0
v -20 -1 0
v -20 0 0
v -19 0 0
v -4 -1 0
v -5 -1 0
v -5 0 0
v -4 0 0
v -3 -1 0
v -4 -1 0
v -4 0 0
v -3 0 0
v -4 -2 0
v -5 -2 0
v -5 -1 0
v -4 -1 0
v -3 -2 0
v -4 -2 0
v -4 -1 0
v -3 -1 0
v -1 -2 0
v -2 -2 0
v -2 -1 0
v -1 -1 0
v 0 -2 0
v -1 -2 0
v -1 -1 0
v 0 -1 0
v -4 -3 0
v -5 -3 0
v -5 -2 0
v -4 -2 0
v -3 -3 0
v -4 -3 0
v -4 -2 0
v -3 -2 0
v -1 -3 0
v -2 -3 0
v -2 -2 0
v -1 -2 0
v 0 -3 0
v -1 -3 0
v -1 -2 0
v 0 -2 0
v -1 -4 0
v -2 -4 0
v -2 -3 0
v -1 -3 0
v 0 -4 0
v -1 -4 0
v -1 -3 0
v 0 -3 0
v -1 -5 0
v -2 -5 0
v -2 -4 0
v -1 -4 0
v 0 -5 0
v -1 -5 0
v -1 -4 0
v 0 -4 0
v -1 -6 0
v -2 -6 0
v -2 -5 0
v -1 -5 0
v 0 -6 0
v -1 -6 0
v -1 -5 0
v 0 -5 0
v -1 -7 0
v -2 -7 0
v -2 -6 0
v -1 -6 0
v 0 -7 0
v -1 -7 0
v -1 -6 0
v 0 -6 0
v -1 -8 0
v -2 -8 0
v -2 -7 0
v -1 -7 0
v 0 -8 0
v -1 -8 0
v -1 -7 0
v 0 -7 0
v -1 -9 0
v -2 -9 0
v -2 -8 0
v -1 -8 0
v 0 -9 0
v -1 -9 0
v -1 -8 0
v 0 -8 0
v -1 -10 0
v -2 -10 0
v -2 -9 0
v -1 -9 0
v 0 -10 0
v -1 -10 0
v -1 -9 0
v 0 -9 0
v -26 -11 0
v -27 -11 0
v -27 -10 0
v -26 -10 0
v -25 -11 0
v -26 -11 0
v -26 -10 0
v -25 -10 0
v -20 -11 0
v -21 -11 0
v -21 -10 0
v -20 -10 0
v -19 -11 0
v -20 -11 0
v -20 -10 0
v -19 -10 0
v -11 -11 0
v -12 -11 0
v -12 -10 0
v -11 -10 0
v -10 -11 0
v -11 -11 0
v -11 -10 0
v -10 -10 0
v -1 -11 0
v -2 -11 0
v -2 -10 0
v -1 -10 0
v 0 -11 0
v -1 -11 0
v -1 -10 0
v 0 -10 0
v -31 -12 0
v -32 -12 0
v -32 -11 0
v -31 -11 0
v -30 -12 0
v -31 -12 0
v -31 -11 0
v -30 -11 0
v -29 -12 0
v -30 -12 0
v -30 -11 0
v -29 -11 0
v -28 -12 0
v -29 -12 0
v -29 -11 0
v -28 -11 0
v -26 -12 0
v -27 -12 0
v -27 -11 0
v -26 -11 0
v -25 -12 0
v -26 -12 0
v -26 -11 0
v -25 -11 0
v -20 -12 0
v -21 -12 0
v -21 -11 0
v -20 -11 0
v -19 -12 0
v -20 -12 0
v -20 -11 0
v -19 -11 0
v -11 -12 0
v -12 -12 0
v -12 -11 0
v -11 -11 0
v -10 -12 0
v -11 -12 0
v -11 -11 0
v -10 -11 0
v -31 -13 0
v -32 -13 0
v -32 -12 0
v -31 -12 0
v -30 -13 0
v -31 -13 0
v -31 -12 0
v -30 -12 0
v -29 -13 0
v -30 -13 0
v -30 -12 0
v -29 -12 0
v -28 -13 0
v -29 -13 0
v -29 -12 0
v -28 -12 0
v -15 -13 0
v -16 -13 0
v -16 -12 0
v -15 -12 0
v -14 -13 0
v -15 -13 0
v -15 -12 0
v -14 -12 0
v -31 -14 0
v -32 -14 0
v -32 -13 0
v -31 -13 0
v -30 -14 0
v -31 -14 0
v -31 -13 0
v -30 -13 0
v -29 -14 0
v -30 -14 0
v -30 -13 0
v -29 -13 0
v -28 -14 0
v -29 -14 0
v -29 -13 0
v -28 -13 0
v -15 -14 0
v -16 -14 0
v -16 -13 0
v -15 -13 0
v -14 -14 0
v -15 -14 0
v -15 -13 0
v -14 -13 0
v -3 -16 0
v -4 -16 0
v -4 -15 0
v -3 -15 0
v -2 -16 0
v -3 -16 0
v -3 -15 0
v -2 -15 0
v -1 -16 0
v -2 -16 0
v -2 -15 0
v -1 -15 0
v 0 -16 0
v -1 -16 0
v -1 -15 0
v 0 -15 0
v -3 -17 0
v -4 -17 0
v -4 -16 0
v -3 -16 0
v -2 -17 0
v -3 -17 0
v -3 -16 0
v -2 -16 0
v -1 -17 0
v -2 -17 0
v -2 -16 0
v -1 -16 0
v 0 -17 0
v -1 -17 0
v -1 -16 0
v 0 -16 0
v -3 -18 0
v -4 -18 0
v -4 -17 0
v -3 -17 0
v -2 -18 0
v -3 -18 0
v -3 -17 0
v -2 -17 0
v -1 -18 0
v -2 -18 0
v -2 -17 0
v -1 -17 0
v 0 -18 0
v -1 -18 0
v -1 -17 0
v 0 -17 0
v -31 -19 0
v -32 -19 0
v -32 -18 0
v -31 -18 0
v -30 -19 0
v -31 -19 0
v -31 -18 0
v -30 -18 0
v -29 -19 0
v -30 -19 0
v -30 -18 0
v -29 -18 0
v -31 -20 0
v -32 -20 0
v -32 -19 0
v -31 -19 0
v -30 -20 0
v -31 -20 0
v -31 -19 0
v -30 -19 0
v -29 -20 0
v -30 -20 0
v -30 -19 0
v -29 -19 0
v -8 -20 0
v -9 -20 0
v -9 -19 0
v -8 -19 0
v -7 -20 0
v -8 -20 0
v -8 -19 0
v -7 -19 0
v -31 -21 0
v -32 -21 0
v -32 -20 0
v -31 -20 0
v -30 -21 0
v -31 -21 0
v -31 -20 0
v -30 -20 0
v -29 -21 0
v -30 -21 0
v -30 -20 0
v -29 -20 0
v -8 -21 0
v -9 -21 0
v -9 -20 0
v -8 -20 0
v -7 -21 0
v -8 -21 0
v -8 -20 0
v -7 -20 0
v -8 -22 0
v -9 -22 0
v -9 -21 0
v -8 -21 0
v -7 -22 0
v -8 -22 0
v -8 -21 0
v -7 -21 0
v -31 -24 0
v -32 -24 0
v -32 -23 0
v -31 -23 0
v -30 -24 0
v -31 -24 0
v -31 -23 0
v -30 -23 0
v -29 -24 0
v -30 -24 0
v -30 -23 0
v -29 -23 0
v -28 -24 0
v -29 -24 0
v -29 -23 0
v -28 -23 0
v -27 -24 0
v -28 -24 0
v -28 -23 0
v -27 -23 0
v -26 -24 0
v -27 -24 0
v -27 -23 0
v -26 -23 0
v -25 -24 0
v -26 -24 0
v -26 -23 0
v -25 -23 0
v -24 -24 0
v -25 -24 0
v -25 -23 0
v -24 -23 0
v -23 -24 0
v -24 -24 0
v -24 -23 0
v -23 -23 0
v -20 -24 0
v -21 -24 0
v -21 -23 0
v -20 -23 0
v -19 -24 0
v -20 -24 0
v -20 -23 0
v -19 -23 0

# Texture cooridinates (Count = 68)
vt 0.6842105 0.5333333
vt 0.7368421 0.5333333
vt 0.7368421 0.5555556
vt 0.6842105 0.5555556
vt 0.6315789 0.5333333
vt 0.6315789 0.5555556
vt 0.5789474 0.5333333
vt 0.5789474 0.5555556
vt 0.5263158 0.5333333
vt 0.5263158 0.5555556
vt 0.4736842 0.5333333
vt 0.4736842 0.5555556
vt 0.6315789 0.7111111
vt 0.6842105 0.7111111
vt 0.6842105 0.7333333
vt 0.6315789 0.7333333
vt 0.5789474 0.7111111
vt 0.5789474 0.7333333
vt 0.6315789 0.6888889
vt 0.6842105 0.6888889
vt 0.5789474 0.6888889
vt 0.6842105 0.5777777
vt 0.7368421 0.5777777
vt 0.7368421 0.6
vt 0.6842105 0.6
vt 0.6315789 0.5777777
vt 0.6315789 0.6
vt 0.6315789 0.6666666
vt 0.6842105 0.6666666
vt 0.5789474 0.6666666
vt 0.9473684 0.6888889
vt 1 0.6888889
vt 1 0.7111111
vt 0.9473684 0.7111111
vt 0.8947368 0.6888889
vt 0.8947368 0.7111111
vt 0.6315789 0.6444445
vt 0.6842105 0.6444445
vt 0.5789474 0.6444445
vt 0.5263158 0.6444445
vt 0.5263158 0.6666666
vt 0.4736842 0.6444445
vt 0.4736842 0.6666666
vt 0.9473684 0.6666666
vt 1 0.6666666
vt 0.8947368 0.6666666
vt 0.6315789 0.6222222
vt 0.6842105 0.6222222
vt 0.5789474 0.6222222
vt 0.5263158 0.6222222
vt 0.4736842 0.6222222
vt 0.5789474 0.6
vt 0.5263158 0.6
vt 0.4736842 0.6
vt 0.5789474 0.5777777
vt 0.5263158 0.5777777
vt 0.5263158 0.7111111
vt 0.5263158 0.7333333
vt 0.4736842 0.7111111
vt 0.4736842 0.7333333
vt 0.5263158 0.6888889
vt 0.4736842 0.6888889
vt 0.7368421 0.7111111
vt 0.7894737 0.7111111
vt 0.7894737 0.7333333
vt 0.7368421 0.7333333
vt 0.7368421 0.6444445
vt 0.7368421 0.6666666

# Normal
vn 0 0 -1

# Mesh description
g village_1_mesh_0007

# Faces
f 1/1/1 2/2/1 3/3/1 4/4/1
f 5/5/1 6/1/1 7/4/1 8/6/1
f 9/7/1 10/5/1 11/6/1 12/8/1
f 13/9/1 14/7/1 15/8/1 16/10/1
f 17/11/1 18/9/1 19/10/1 20/12/1
f 21/13/1 22/14/1 23/15/1 24/16/1
f 25/17/1 26/13/1 27/16/1 28/18/1
f 29/19/1 30/20/1 31/14/1 32/13/1
f 33/21/1 34/19/1 35/13/1 36/17/1
f 37/22/1 38/23/1 39/24/1 40/25/1
f 41/26/1 42/22/1 43/25/1 44/27/1
f 45/28/1 46/29/1 47/20/1 48/19/1
f 49/30/1 50/28/1 51/19/1 52/21/1
f 53/4/1 54/3/1 55/23/1 56/22/1
f 57/6/1 58/4/1 59/22/1 60/26/1
f 61/22/1 62/23/1 63/24/1 64/25/1
f 65/26/1 66/22/1 67/25/1 68/27/1
f 69/22/1 70/23/1 71/24/1 72/25/1
f 73/26/1 74/22/1 75/25/1 76/27/1
f 77/4/1 78/3/1 79/23/1 80/22/1
f 81/6/1 82/4/1 83/22/1 84/26/1
f 85/1/1 86/2/1 87/3/1 88/4/1
f 89/5/1 90/1/1 91/4/1 92/6/1
f 93/22/1 94/23/1 95/24/1 96/25/1
f 97/26/1 98/22/1 99/25/1 100/27/1
f 101/4/1 102/3/1 103/23/1 104/22/1
f 105/6/1 106/4/1 107/22/1 108/26/1
f 109/1/1 110/2/1 111/3/1 112/4/1
f 113/5/1 114/1/1 115/4/1 116/6/1
f 117/31/1 118/32/1 119/33/1 120/34/1
f 121/35/1 122/31/1 123/34/1 124/36/1
f 125/31/1 126/32/1 127/33/1 128/34/1
f 129/35/1 130/31/1 131/34/1 132/36/1
f 133/31/1 134/32/1 135/33/1 136/34/1
f 137/35/1 138/31/1 139/34/1 140/36/1
f 141/1/1 142/2/1 143/3/1 144/4/1
f 145/5/1 146/1/1 147/4/1 148/6/1
f 149/37/1 150/38/1 151/29/1 152/28/1
f 153/39/1 154/37/1 155/28/1 156/30/1
f 157/40/1 158/39/1 159/30/1 160/41/1
f 161/42/1 162/40/1 163/41/1 164/43/1
f 165/44/1 166/45/1 167/32/1 168/31/1
f 169/46/1 170/44/1 171/31/1 172/35/1
f 173/44/1 174/45/1 175/32/1 176/31/1
f 177/46/1 178/44/1 179/31/1 180/35/1
f 181/44/1 182/45/1 183/32/1 184/31/1
f 185/46/1 186/44/1 187/31/1 188/35/1
f 189/47/1 190/48/1 191/38/1 192/37/1
f 193/49/1 194/47/1 195/37/1 196/39/1
f 197/50/1 198/49/1 199/39/1 200/40/1
f 201/51/1 202/50/1 203/40/1 204/42/1
f 205/31/1 206/32/1 207/33/1 208/34/1
f 209/35/1 210/31/1 211/34/1 212/36/1
f 213/27/1 214/25/1 215/48/1 216/47/1
f 217/52/1 218/27/1 219/47/1 220/49/1
f 221/53/1 222/52/1 223/49/1 224/50/1
f 225/54/1 226/53/1 227/50/1 228/51/1
f 229/44/1 230/45/1 231/32/1 232/31/1
f 233/46/1 234/44/1 235/31/1 236/35/1
f 237/22/1 238/23/1 239/24/1 240/25/1
f 241/26/1 242/22/1 243/25/1 244/27/1
f 245/55/1 246/26/1 247/27/1 248/52/1
f 249/56/1 250/55/1 251/52/1 252/53/1
f 253/4/1 254/3/1 255/23/1 256/22/1
f 257/6/1 258/4/1 259/22/1 260/26/1
f 261/8/1 262/6/1 263/26/1 264/55/1
f 265/10/1 266/8/1 267/55/1 268/56/1
f 269/1/1 270/2/1 271/3/1 272/4/1
f 273/5/1 274/1/1 275/4/1 276/6/1
f 277/7/1 278/5/1 279/6/1 280/8/1
f 281/9/1 282/7/1 283/8/1 284/10/1
f 285/39/1 286/37/1 287/28/1 288/30/1
f 289/40/1 290/39/1 291/30/1 292/41/1
f 293/42/1 294/40/1 295/41/1 296/43/1
f 297/49/1 298/47/1 299/37/1 300/39/1
f 301/50/1 302/49/1 303/39/1 304/40/1
f 305/51/1 306/50/1 307/40/1 308/42/1
f 309/57/1 310/17/1 311/18/1 312/58/1
f 313/59/1 314/57/1 315/58/1 316/60/1
f 317/52/1 318/27/1 319/47/1 320/49/1
f 321/53/1 322/52/1 323/49/1 324/50/1
f 325/54/1 326/53/1 327/50/1 328/51/1
f 329/61/1 330/21/1 331/17/1 332/57/1
f 333/62/1 334/61/1 335/57/1 336/59/1
f 337/41/1 338/30/1 339/21/1 340/61/1
f 341/43/1 342/41/1 343/61/1 344/62/1
f 345/63/1 346/64/1 347/65/1 348/66/1
f 349/14/1 350/63/1 351/66/1 352/15/1
f 353/38/1 354/67/1 355/68/1 356/29/1
f 357/37/1 358/38/1 359/29/1 360/28/1
f 361/39/1 362/37/1 363/28/1 364/30/1
f 365/40/1 366/39/1 367/30/1 368/41/1
f 369/42/1 370/40/1 371/41/1 372/43/1
f 373/63/1 374/64/1 375/65/1 376/66/1
f 377/14/1 378/63/1 379/66/1 380/15/1
f 381/63/1 382/64/1 383/65/1 384/66/1
f 385/14/1 386/63/1 387/66/1 388/15/1

