# Tiled2Unity generated file. Do not modify by hand.
# Wavefront file for 'village_1_mesh_0018.obj'

# Vertices (Count = 192)
v -24 -3 0
v -25 -3 0
v -25 -2 0
v -24 -2 0
v -23 -3 0
v -24 -3 0
v -24 -2 0
v -23 -2 0
v -14 -3 0
v -15 -3 0
v -15 -2 0
v -14 -2 0
v -12 -3 0
v -13 -3 0
v -13 -2 0
v -12 -2 0
v -11 -3 0
v -12 -3 0
v -12 -2 0
v -11 -2 0
v -29 -4 0
v -30 -4 0
v -30 -3 0
v -29 -3 0
v -28 -4 0
v -29 -4 0
v -29 -3 0
v -28 -3 0
v -10 -4 0
v -11 -4 0
v -11 -3 0
v -10 -3 0
v -9 -4 0
v -10 -4 0
v -10 -3 0
v -9 -3 0
v -29 -5 0
v -30 -5 0
v -30 -4 0
v -29 -4 0
v -28 -5 0
v -29 -5 0
v -29 -4 0
v -28 -4 0
v -20 -5 0
v -21 -5 0
v -21 -4 0
v -20 -4 0
v -18 -5 0
v -19 -5 0
v -19 -4 0
v -18 -4 0
v -15 -5 0
v -16 -5 0
v -16 -4 0
v -15 -4 0
v -11 -5 0
v -12 -5 0
v -12 -4 0
v -11 -4 0
v -5 -5 0
v -6 -5 0
v -6 -4 0
v -5 -4 0
v -15 -6 0
v -16 -6 0
v -16 -5 0
v -15 -5 0
v -31 -7 0
v -32 -7 0
v -32 -6 0
v -31 -6 0
v -30 -7 0
v -31 -7 0
v -31 -6 0
v -30 -6 0
v -31 -8 0
v -32 -8 0
v -32 -7 0
v -31 -7 0
v -30 -8 0
v -31 -8 0
v -31 -7 0
v -30 -7 0
v -20 -10 0
v -21 -10 0
v -21 -9 0
v -20 -9 0
v -19 -10 0
v -20 -10 0
v -20 -9 0
v -19 -9 0
v -15 -10 0
v -16 -10 0
v -16 -9 0
v -15 -9 0
v -8 -10 0
v -9 -10 0
v -9 -9 0
v -8 -9 0
v -5 -10 0
v -6 -10 0
v -6 -9 0
v -5 -9 0
v -28 -11 0
v -29 -11 0
v -29 -10 0
v -28 -10 0
v -27 -11 0
v -28 -11 0
v -28 -10 0
v -27 -10 0
v -15 -11 0
v -16 -11 0
v -16 -10 0
v -15 -10 0
v -14 -11 0
v -15 -11 0
v -15 -10 0
v -14 -10 0
v -9 -11 0
v -10 -11 0
v -10 -10 0
v -9 -10 0
v -8 -11 0
v -9 -11 0
v -9 -10 0
v -8 -10 0
v -3 -11 0
v -4 -11 0
v -4 -10 0
v -3 -10 0
v -2 -11 0
v -3 -11 0
v -3 -10 0
v -2 -10 0
v -28 -12 0
v -29 -12 0
v -29 -11 0
v -28 -11 0
v -27 -12 0
v -28 -12 0
v -28 -11 0
v -27 -11 0
v -21 -12 0
v -22 -12 0
v -22 -11 0
v -21 -11 0
v -15 -12 0
v -16 -12 0
v -16 -11 0
v -15 -11 0
v -14 -12 0
v -15 -12 0
v -15 -11 0
v -14 -11 0
v -9 -12 0
v -10 -12 0
v -10 -11 0
v -9 -11 0
v -8 -12 0
v -9 -12 0
v -9 -11 0
v -8 -11 0
v -3 -12 0
v -4 -12 0
v -4 -11 0
v -3 -11 0
v -2 -12 0
v -3 -12 0
v -3 -11 0
v -2 -11 0
v -16 -13 0
v -17 -13 0
v -17 -12 0
v -16 -12 0
v -12 -20 0
v -13 -20 0
v -13 -19 0
v -12 -19 0
v -11 -20 0
v -12 -20 0
v -12 -19 0
v -11 -19 0
v -12 -21 0
v -13 -21 0
v -13 -20 0
v -12 -20 0
v -11 -21 0
v -12 -21 0
v -12 -20 0
v -11 -20 0

# Texture cooridinates (Count = 38)
vt 0.8421053 0.3333333
vt 0.8947368 0.3333333
vt 0.8947368 0.3555555
vt 0.8421053 0.3555555
vt 0.7894737 0.3333333
vt 0.7894737 0.3555555
vt 0.1052632 0.6888889
vt 0.1578947 0.6888889
vt 0.1578947 0.7111111
vt 0.1052632 0.7111111
vt 0.2631579 0.5555556
vt 0.3157895 0.5555556
vt 0.3157895 0.5777777
vt 0.2631579 0.5777777
vt 0.2105263 0.5555556
vt 0.2105263 0.5777777
vt 0.9473684 0.3555555
vt 1 0.3555555
vt 1 0.3777778
vt 0.9473684 0.3777778
vt 0.8947368 0.3777778
vt 0.368421 0.5555556
vt 0.4210526 0.5555556
vt 0.4210526 0.5777777
vt 0.368421 0.5777777
vt 0.9473684 0.3333333
vt 1 0.3333333
vt 0.1052632 0.6666666
vt 0.1578947 0.6666666
vt 0.1578947 0.7333333
vt 0.1052632 0.7333333
vt 0.368421 0.7111111
vt 0.4210526 0.7111111
vt 0.4210526 0.7333333
vt 0.368421 0.7333333
vt 0.7894737 0.3111111
vt 0.8421053 0.3111111
vt 0.8947368 0.3111111

# Normal
vn 0 0 -1

# Mesh description
g village_1_mesh_0018

# Faces
f 1/1/1 2/2/1 3/3/1 4/4/1
f 5/5/1 6/1/1 7/4/1 8/6/1
f 9/7/1 10/8/1 11/9/1 12/10/1
f 13/11/1 14/12/1 15/13/1 16/14/1
f 17/15/1 18/11/1 19/14/1 20/16/1
f 21/17/1 22/18/1 23/19/1 24/20/1
f 25/3/1 26/17/1 27/20/1 28/21/1
f 29/22/1 30/23/1 31/24/1 32/25/1
f 33/12/1 34/22/1 35/25/1 36/13/1
f 37/26/1 38/27/1 39/18/1 40/17/1
f 41/2/1 42/26/1 43/17/1 44/3/1
f 45/7/1 46/8/1 47/9/1 48/10/1
f 49/28/1 50/29/1 51/8/1 52/7/1
f 53/28/1 54/29/1 55/8/1 56/7/1
f 57/10/1 58/9/1 59/30/1 60/31/1
f 61/10/1 62/9/1 63/30/1 64/31/1
f 65/7/1 66/8/1 67/9/1 68/10/1
f 69/17/1 70/18/1 71/19/1 72/20/1
f 73/3/1 74/17/1 75/20/1 76/21/1
f 77/26/1 78/27/1 79/18/1 80/17/1
f 81/2/1 82/26/1 83/17/1 84/3/1
f 85/7/1 86/8/1 87/9/1 88/10/1
f 89/7/1 90/8/1 91/9/1 92/10/1
f 93/7/1 94/8/1 95/9/1 96/10/1
f 97/32/1 98/33/1 99/34/1 100/35/1
f 101/32/1 102/33/1 103/34/1 104/35/1
f 105/17/1 106/18/1 107/19/1 108/20/1
f 109/3/1 110/17/1 111/20/1 112/21/1
f 113/17/1 114/18/1 115/19/1 116/20/1
f 117/3/1 118/17/1 119/20/1 120/21/1
f 121/17/1 122/18/1 123/19/1 124/20/1
f 125/3/1 126/17/1 127/20/1 128/21/1
f 129/17/1 130/18/1 131/19/1 132/20/1
f 133/3/1 134/17/1 135/20/1 136/21/1
f 137/26/1 138/27/1 139/18/1 140/17/1
f 141/2/1 142/26/1 143/17/1 144/3/1
f 145/36/1 146/37/1 147/1/1 148/5/1
f 149/26/1 150/27/1 151/18/1 152/17/1
f 153/2/1 154/26/1 155/17/1 156/3/1
f 157/26/1 158/27/1 159/18/1 160/17/1
f 161/2/1 162/26/1 163/17/1 164/3/1
f 165/26/1 166/27/1 167/18/1 168/17/1
f 169/2/1 170/26/1 171/17/1 172/3/1
f 173/36/1 174/37/1 175/1/1 176/5/1
f 177/1/1 178/2/1 179/3/1 180/4/1
f 181/5/1 182/1/1 183/4/1 184/6/1
f 185/37/1 186/38/1 187/2/1 188/1/1
f 189/36/1 190/37/1 191/1/1 192/5/1

