# Tiled2Unity generated file. Do not modify by hand.
# Wavefront file for 'village_1_mesh_0005.obj'

# Vertices (Count = 336)
v -31 -1 0
v -32 -1 0
v -32 0 0
v -31 0 0
v -30 -1 0
v -31 -1 0
v -31 0 0
v -30 0 0
v -29 -1 0
v -30 -1 0
v -30 0 0
v -29 0 0
v -28 -1 0
v -29 -1 0
v -29 0 0
v -28 0 0
v -25 -1 0
v -26 -1 0
v -26 0 0
v -25 0 0
v -23 -1 0
v -24 -1 0
v -24 0 0
v -23 0 0
v -13 -1 0
v -14 -1 0
v -14 0 0
v -13 0 0
v -12 -1 0
v -13 -1 0
v -13 0 0
v -12 0 0
v -11 -1 0
v -12 -1 0
v -12 0 0
v -11 0 0
v -10 -1 0
v -11 -1 0
v -11 0 0
v -10 0 0
v -9 -1 0
v -10 -1 0
v -10 0 0
v -9 0 0
v -8 -1 0
v -9 -1 0
v -9 0 0
v -8 0 0
v -7 -1 0
v -8 -1 0
v -8 0 0
v -7 0 0
v -6 -1 0
v -7 -1 0
v -7 0 0
v -6 0 0
v -5 -1 0
v -6 -1 0
v -6 0 0
v -5 0 0
v -4 -1 0
v -5 -1 0
v -5 0 0
v -4 0 0
v -3 -1 0
v -4 -1 0
v -4 0 0
v -3 0 0
v -2 -1 0
v -3 -1 0
v -3 0 0
v -2 0 0
v -31 -2 0
v -32 -2 0
v -32 -1 0
v -31 -1 0
v -30 -2 0
v -31 -2 0
v -31 -1 0
v -30 -1 0
v -29 -2 0
v -30 -2 0
v -30 -1 0
v -29 -1 0
v -28 -2 0
v -29 -2 0
v -29 -1 0
v -28 -1 0
v -23 -2 0
v -24 -2 0
v -24 -1 0
v -23 -1 0
v -2 -2 0
v -3 -2 0
v -3 -1 0
v -2 -1 0
v -31 -3 0
v -32 -3 0
v -32 -2 0
v -31 -2 0
v -30 -3 0
v -31 -3 0
v -31 -2 0
v -30 -2 0
v -29 -3 0
v -30 -3 0
v -30 -2 0
v -29 -2 0
v -28 -3 0
v -29 -3 0
v -29 -2 0
v -28 -2 0
v -27 -3 0
v -28 -3 0
v -28 -2 0
v -27 -2 0
v -26 -3 0
v -27 -3 0
v -27 -2 0
v -26 -2 0
v -25 -3 0
v -26 -3 0
v -26 -2 0
v -25 -2 0
v -24 -3 0
v -25 -3 0
v -25 -2 0
v -24 -2 0
v -23 -3 0
v -24 -3 0
v -24 -2 0
v -23 -2 0
v -2 -3 0
v -3 -3 0
v -3 -2 0
v -2 -2 0
v -31 -4 0
v -32 -4 0
v -32 -3 0
v -31 -3 0
v -2 -4 0
v -3 -4 0
v -3 -3 0
v -2 -3 0
v -31 -5 0
v -32 -5 0
v -32 -4 0
v -31 -4 0
v -2 -5 0
v -3 -5 0
v -3 -4 0
v -2 -4 0
v -31 -6 0
v -32 -6 0
v -32 -5 0
v -31 -5 0
v -2 -6 0
v -3 -6 0
v -3 -5 0
v -2 -5 0
v -31 -7 0
v -32 -7 0
v -32 -6 0
v -31 -6 0
v -30 -7 0
v -31 -7 0
v -31 -6 0
v -30 -6 0
v -2 -7 0
v -3 -7 0
v -3 -6 0
v -2 -6 0
v -30 -8 0
v -31 -8 0
v -31 -7 0
v -30 -7 0
v -2 -8 0
v -3 -8 0
v -3 -7 0
v -2 -7 0
v -30 -9 0
v -31 -9 0
v -31 -8 0
v -30 -8 0
v -29 -9 0
v -30 -9 0
v -30 -8 0
v -29 -8 0
v -28 -9 0
v -29 -9 0
v -29 -8 0
v -28 -8 0
v -9 -9 0
v -10 -9 0
v -10 -8 0
v -9 -8 0
v -4 -9 0
v -5 -9 0
v -5 -8 0
v -4 -8 0
v -3 -9 0
v -4 -9 0
v -4 -8 0
v -3 -8 0
v -2 -9 0
v -3 -9 0
v -3 -8 0
v -2 -8 0
v -28 -10 0
v -29 -10 0
v -29 -9 0
v -28 -9 0
v -4 -10 0
v -5 -10 0
v -5 -9 0
v -4 -9 0
v -3 -10 0
v -4 -10 0
v -4 -9 0
v -3 -9 0
v -2 -10 0
v -3 -10 0
v -3 -9 0
v -2 -9 0
v -28 -11 0
v -29 -11 0
v -29 -10 0
v -28 -10 0
v -27 -11 0
v -28 -11 0
v -28 -10 0
v -27 -10 0
v -26 -11 0
v -27 -11 0
v -27 -10 0
v -26 -10 0
v -25 -11 0
v -26 -11 0
v -26 -10 0
v -25 -10 0
v -24 -11 0
v -25 -11 0
v -25 -10 0
v -24 -10 0
v -23 -11 0
v -24 -11 0
v -24 -10 0
v -23 -10 0
v -22 -11 0
v -23 -11 0
v -23 -10 0
v -22 -10 0
v -21 -11 0
v -22 -11 0
v -22 -10 0
v -21 -10 0
v -20 -11 0
v -21 -11 0
v -21 -10 0
v -20 -10 0
v -19 -11 0
v -20 -11 0
v -20 -10 0
v -19 -10 0
v -18 -11 0
v -19 -11 0
v -19 -10 0
v -18 -10 0
v -17 -11 0
v -18 -11 0
v -18 -10 0
v -17 -10 0
v -16 -11 0
v -17 -11 0
v -17 -10 0
v -16 -10 0
v -15 -11 0
v -16 -11 0
v -16 -10 0
v -15 -10 0
v -14 -11 0
v -15 -11 0
v -15 -10 0
v -14 -10 0
v -13 -11 0
v -14 -11 0
v -14 -10 0
v -13 -10 0
v -12 -11 0
v -13 -11 0
v -13 -10 0
v -12 -10 0
v -11 -11 0
v -12 -11 0
v -12 -10 0
v -11 -10 0
v -10 -11 0
v -11 -11 0
v -11 -10 0
v -10 -10 0
v -9 -11 0
v -10 -11 0
v -10 -10 0
v -9 -10 0
v -8 -11 0
v -9 -11 0
v -9 -10 0
v -8 -10 0
v -7 -11 0
v -8 -11 0
v -8 -10 0
v -7 -10 0
v -6 -11 0
v -7 -11 0
v -7 -10 0
v -6 -10 0
v -5 -11 0
v -6 -11 0
v -6 -10 0
v -5 -10 0
v -4 -11 0
v -5 -11 0
v -5 -10 0
v -4 -10 0
v -3 -11 0
v -4 -11 0
v -4 -10 0
v -3 -10 0
v -2 -11 0
v -3 -11 0
v -3 -10 0
v -2 -10 0
v -11 -21 0
v -12 -21 0
v -12 -20 0
v -11 -20 0

# Texture cooridinates (Count = 52)
vt 0.2631579 0.8
vt 0.3157895 0.8
vt 0.3157895 0.8222222
vt 0.2631579 0.8222222
vt 0.1578947 0.6444445
vt 0.2105263 0.6444445
vt 0.2105263 0.6666666
vt 0.1578947 0.6666666
vt 0 0.8
vt 0.05263158 0.8
vt 0.05263158 0.8222222
vt 0 0.8222222
vt 0.1578947 0.8222222
vt 0.2105263 0.8222222
vt 0.2105263 0.8444445
vt 0.1578947 0.8444445
vt 0.1052632 0.8222222
vt 0.1052632 0.8444445
vt 0.05263158 0.8444445
vt 0 0.8444445
vt 0.2631579 0.7777778
vt 0.3157895 0.7777778
vt 0.05263158 0.5333333
vt 0.1052632 0.5333333
vt 0.1052632 0.5555556
vt 0.05263158 0.5555556
vt 0 0.7777778
vt 0.05263158 0.7777778
vt 0.2631579 0.7555556
vt 0.3157895 0.7555556
vt 0.2105263 0.7555556
vt 0.2105263 0.7777778
vt 0.1578947 0.7555556
vt 0.1578947 0.7777778
vt 0.1052632 0.7555556
vt 0.1052632 0.7777778
vt 0.05263158 0.7555556
vt 0 0.7555556
vt 0.368421 0.7777778
vt 0.4210526 0.7777778
vt 0.4210526 0.8
vt 0.368421 0.8
vt 0.1578947 0.5777777
vt 0.2105263 0.5777777
vt 0.2105263 0.6
vt 0.1578947 0.6
vt 0.1052632 0.5777777
vt 0.1052632 0.6
vt 0.1578947 0.5555556
vt 0.2105263 0.5555556
vt 0.1052632 0.6444445
vt 0.1052632 0.6666666

# Normal
vn 0 0 -1

# Mesh description
g village_1_mesh_0005

# Faces
f 1/1/1 2/2/1 3/3/1 4/4/1
f 5/1/1 6/2/1 7/3/1 8/4/1
f 9/5/1 10/6/1 11/7/1 12/8/1
f 13/5/1 14/6/1 15/7/1 16/8/1
f 17/5/1 18/6/1 19/7/1 20/8/1
f 21/9/1 22/10/1 23/11/1 24/12/1
f 25/13/1 26/14/1 27/15/1 28/16/1
f 29/13/1 30/14/1 31/15/1 32/16/1
f 33/13/1 34/14/1 35/15/1 36/16/1
f 37/13/1 38/14/1 39/15/1 40/16/1
f 41/13/1 42/14/1 43/15/1 44/16/1
f 45/13/1 46/14/1 47/15/1 48/16/1
f 49/13/1 50/14/1 51/15/1 52/16/1
f 53/13/1 54/14/1 55/15/1 56/16/1
f 57/13/1 58/14/1 59/15/1 60/16/1
f 61/17/1 62/13/1 63/16/1 64/18/1
f 65/11/1 66/17/1 67/18/1 68/19/1
f 69/12/1 70/11/1 71/19/1 72/20/1
f 73/1/1 74/2/1 75/3/1 76/4/1
f 77/21/1 78/22/1 79/2/1 80/1/1
f 81/5/1 82/6/1 83/7/1 84/8/1
f 85/23/1 86/24/1 87/25/1 88/26/1
f 89/27/1 90/28/1 91/10/1 92/9/1
f 93/9/1 94/10/1 95/11/1 96/12/1
f 97/1/1 98/2/1 99/3/1 100/4/1
f 101/29/1 102/30/1 103/22/1 104/21/1
f 105/31/1 106/29/1 107/21/1 108/32/1
f 109/31/1 110/29/1 111/21/1 112/32/1
f 113/33/1 114/31/1 115/32/1 116/34/1
f 117/35/1 118/33/1 119/34/1 120/36/1
f 121/37/1 122/35/1 123/36/1 124/28/1
f 125/37/1 126/35/1 127/36/1 128/28/1
f 129/38/1 130/37/1 131/28/1 132/27/1
f 133/9/1 134/10/1 135/11/1 136/12/1
f 137/1/1 138/2/1 139/3/1 140/4/1
f 141/9/1 142/10/1 143/11/1 144/12/1
f 145/1/1 146/2/1 147/3/1 148/4/1
f 149/9/1 150/10/1 151/11/1 152/12/1
f 153/21/1 154/22/1 155/2/1 156/1/1
f 157/9/1 158/10/1 159/11/1 160/12/1
f 161/29/1 162/30/1 163/22/1 164/21/1
f 165/39/1 166/40/1 167/41/1 168/42/1
f 169/9/1 170/10/1 171/11/1 172/12/1
f 173/21/1 174/22/1 175/2/1 176/1/1
f 177/9/1 178/10/1 179/11/1 180/12/1
f 181/29/1 182/30/1 183/22/1 184/21/1
f 185/31/1 186/29/1 187/21/1 188/32/1
f 189/39/1 190/40/1 191/41/1 192/42/1
f 193/23/1 194/24/1 195/25/1 196/26/1
f 197/43/1 198/44/1 199/45/1 200/46/1
f 201/47/1 202/43/1 203/46/1 204/48/1
f 205/9/1 206/10/1 207/11/1 208/12/1
f 209/21/1 210/22/1 211/2/1 212/1/1
f 213/49/1 214/50/1 215/44/1 216/43/1
f 217/25/1 218/49/1 219/43/1 220/47/1
f 221/27/1 222/28/1 223/10/1 224/9/1
f 225/29/1 226/30/1 227/22/1 228/21/1
f 229/31/1 230/29/1 231/21/1 232/32/1
f 233/31/1 234/29/1 235/21/1 236/32/1
f 237/31/1 238/29/1 239/21/1 240/32/1
f 241/31/1 242/29/1 243/21/1 244/32/1
f 245/31/1 246/29/1 247/21/1 248/32/1
f 249/31/1 250/29/1 251/21/1 252/32/1
f 253/31/1 254/29/1 255/21/1 256/32/1
f 257/31/1 258/29/1 259/21/1 260/32/1
f 261/31/1 262/29/1 263/21/1 264/32/1
f 265/31/1 266/29/1 267/21/1 268/32/1
f 269/31/1 270/29/1 271/21/1 272/32/1
f 273/31/1 274/29/1 275/21/1 276/32/1
f 277/31/1 278/29/1 279/21/1 280/32/1
f 281/31/1 282/29/1 283/21/1 284/32/1
f 285/31/1 286/29/1 287/21/1 288/32/1
f 289/31/1 290/29/1 291/21/1 292/32/1
f 293/31/1 294/29/1 295/21/1 296/32/1
f 297/31/1 298/29/1 299/21/1 300/32/1
f 301/31/1 302/29/1 303/21/1 304/32/1
f 305/31/1 306/29/1 307/21/1 308/32/1
f 309/33/1 310/31/1 311/32/1 312/34/1
f 313/35/1 314/33/1 315/34/1 316/36/1
f 317/37/1 318/35/1 319/36/1 320/28/1
f 321/37/1 322/35/1 323/36/1 324/28/1
f 325/37/1 326/35/1 327/36/1 328/28/1
f 329/38/1 330/37/1 331/28/1 332/27/1
f 333/51/1 334/5/1 335/8/1 336/52/1

