# Tiled2Unity generated file. Do not modify by hand.
# Wavefront file for 'village_1_mesh_0006.obj'

# Vertices (Count = 44)
v -29 -1 0
v -30 -1 0
v -30 0 0
v -29 0 0
v -25 -1 0
v -26 -1 0
v -26 0 0
v -25 0 0
v -24 -1 0
v -25 -1 0
v -25 0 0
v -24 0 0
v -29 -2 0
v -30 -2 0
v -30 -1 0
v -29 -1 0
v -25 -2 0
v -26 -2 0
v -26 -1 0
v -25 -1 0
v -24 -2 0
v -25 -2 0
v -25 -1 0
v -24 -1 0
v -29 -3 0
v -30 -3 0
v -30 -2 0
v -29 -2 0
v -28 -3 0
v -29 -3 0
v -29 -2 0
v -28 -2 0
v -29 -4 0
v -30 -4 0
v -30 -3 0
v -29 -3 0
v -28 -4 0
v -29 -4 0
v -29 -3 0
v -28 -3 0
v -25 -4 0
v -26 -4 0
v -26 -3 0
v -25 -3 0

# Texture cooridinates (Count = 27)
vt 0.1578947 0.6666666
vt 0.2105263 0.6666666
vt 0.2105263 0.6888889
vt 0.1578947 0.6888889
vt 0.05263158 0.6888889
vt 0.1052632 0.6888889
vt 0.1052632 0.7111111
vt 0.05263158 0.7111111
vt 0 0.6888889
vt 0 0.7111111
vt 0.1578947 0.6444445
vt 0.2105263 0.6444445
vt 0.05263158 0.6666666
vt 0.1052632 0.6666666
vt 0 0.6666666
vt 0.1578947 0.5777777
vt 0.2105263 0.5777777
vt 0.2105263 0.6
vt 0.1578947 0.6
vt 0.1052632 0.5777777
vt 0.1052632 0.6
vt 0.1578947 0.5555556
vt 0.2105263 0.5555556
vt 0.1052632 0.5555556
vt 0.05263158 0.5333333
vt 0.1052632 0.5333333
vt 0.05263158 0.5555556

# Normal
vn 0 0 -1

# Mesh description
g village_1_mesh_0006

# Faces
f 1/1/1 2/2/1 3/3/1 4/4/1
f 5/5/1 6/6/1 7/7/1 8/8/1
f 9/9/1 10/5/1 11/8/1 12/10/1
f 13/11/1 14/12/1 15/2/1 16/1/1
f 17/13/1 18/14/1 19/6/1 20/5/1
f 21/15/1 22/13/1 23/5/1 24/9/1
f 25/16/1 26/17/1 27/18/1 28/19/1
f 29/20/1 30/16/1 31/19/1 32/21/1
f 33/22/1 34/23/1 35/17/1 36/16/1
f 37/24/1 38/22/1 39/16/1 40/20/1
f 41/25/1 42/26/1 43/24/1 44/27/1

