# Tiled2Unity generated file. Do not modify by hand.
# Wavefront file for 'dungeon_1_mesh_0004.obj'

# Vertices (Count = 52)
v -6 -8 0
v -7 -8 0
v -7 -7 0
v -6 -7 0
v -5 -8 0
v -6 -8 0
v -6 -7 0
v -5 -7 0
v -4 -8 0
v -5 -8 0
v -5 -7 0
v -4 -7 0
v -3 -8 0
v -4 -8 0
v -4 -7 0
v -3 -7 0
v -2 -8 0
v -3 -8 0
v -3 -7 0
v -2 -7 0
v -10 -22 0
v -11 -22 0
v -11 -21 0
v -10 -21 0
v -6 -22 0
v -7 -22 0
v -7 -21 0
v -6 -21 0
v -10 -23 0
v -11 -23 0
v -11 -22 0
v -10 -22 0
v -6 -23 0
v -7 -23 0
v -7 -22 0
v -6 -22 0
v -11 -24 0
v -12 -24 0
v -12 -23 0
v -11 -23 0
v -10 -24 0
v -11 -24 0
v -11 -23 0
v -10 -23 0
v -6 -24 0
v -7 -24 0
v -7 -23 0
v -6 -23 0
v -5 -24 0
v -6 -24 0
v -6 -23 0
v -5 -23 0

# Texture cooridinates (Count = 16)
vt 0.4166667 0.9166667
vt 0.4583333 0.9166667
vt 0.4583333 1
vt 0.4166667 1
vt 0.9166667 0.9166667
vt 0.9583333 0.9166667
vt 0.9583333 1
vt 0.9166667 1
vt 0.9166667 0.8333333
vt 0.9583333 0.8333333
vt 0.125 0.9166667
vt 0.1666667 0.9166667
vt 0.1666667 1
vt 0.125 1
vt 0.9166667 0.75
vt 0.9583333 0.75

# Normal
vn 0 0 -1

# Mesh description
g dungeon_1_mesh_0004

# Faces
f 1/1/1 2/2/1 3/3/1 4/4/1
f 5/1/1 6/2/1 7/3/1 8/4/1
f 9/1/1 10/2/1 11/3/1 12/4/1
f 13/1/1 14/2/1 15/3/1 16/4/1
f 17/1/1 18/2/1 19/3/1 20/4/1
f 21/5/1 22/6/1 23/7/1 24/8/1
f 25/5/1 26/6/1 27/7/1 28/8/1
f 29/9/1 30/10/1 31/6/1 32/5/1
f 33/9/1 34/10/1 35/6/1 36/5/1
f 37/11/1 38/12/1 39/13/1 40/14/1
f 41/15/1 42/16/1 43/10/1 44/9/1
f 45/15/1 46/16/1 47/10/1 48/9/1
f 49/11/1 50/12/1 51/13/1 52/14/1

